<?xml version="1.0" encoding="utf-8"?>
<!-- Generator: Adobe Illustrator 18.1.1, SVG Export Plug-In . SVG Version: 6.00 Build 0)  -->
<svg version="1.1" id="Layer_1" xmlns="http://www.w3.org/2000/svg" xmlns:xlink="http://www.w3.org/1999/xlink" x="0px" y="0px"
	 width="680.444px" height="442.741px" viewBox="-299 1279.259 680.444 442.741"
	 enable-background="new -299 1279.259 680.444 442.741" xml:space="preserve">
<g>
	
		<line fill="none" stroke="#000000" stroke-width="0.5" stroke-miterlimit="10" x1="-222.427" y1="1333.377" x2="-240.174" y2="1351.124"/>
	
		<line fill="none" stroke="#000000" stroke-width="0.5" stroke-miterlimit="10" x1="-240.309" y1="1333.377" x2="-222.494" y2="1351.192"/>
</g>
<g>
	<g>
		<path d="M-273.154,1313.724l-3.592-4.715c-0.198-0.26-0.198-0.621,0-0.882l3.592-4.716c0.243-0.32,0.7-0.381,1.02-0.138
			l0.574,0.437c0.32,0.243,0.381,0.7,0.138,1.02l-2.923,3.837l2.923,3.837c0.243,0.32,0.182,0.776-0.138,1.02l-0.574,0.437
			C-272.454,1314.105-272.911,1314.044-273.154,1313.724z"/>
	</g>
	<g>
		<path d="M-267.519,1313.857l-0.581-0.429c-0.323-0.239-0.392-0.694-0.153-1.017l2.837-3.844l-2.837-3.844
			c-0.239-0.323-0.17-0.779,0.153-1.017l0.581-0.429c0.323-0.239,0.779-0.17,1.017,0.153l3.472,4.704
			c0.189,0.257,0.189,0.607,0,0.864l-3.472,4.704C-266.741,1314.027-267.196,1314.096-267.519,1313.857z"/>
	</g>
</g>
<g>
	<g>
		<path d="M-242.076,1313.994h-10.599c-0.368,0-0.667-0.298-0.667-0.667v-4.906c0-0.368,0.298-0.667,0.667-0.667h0.404
			c0.368,0,0.667,0.298,0.667,0.667v3.17c0,0.368,0.298,0.667,0.667,0.667h7.125c0.368,0,0.667-0.298,0.667-0.667v-3.17
			c0-0.368,0.298-0.667,0.667-0.667h0.404c0.368,0,0.667,0.298,0.667,0.667v4.906
			C-241.41,1313.696-241.708,1313.994-242.076,1313.994z"/>
	</g>
	<path d="M-246.383,1309.422c0,0.354-0.287,0.64-0.64,0.64h-0.705c-0.354,0-0.64-0.287-0.64-0.64v-3.978l-3.87-0.016l4.892-4.02
		l4.771,4.036h-3.809L-246.383,1309.422L-246.383,1309.422z"/>
</g>
<g>
	<g>
		<path d="M-220.578,1314.536h-9.763c-0.383,0-0.693-0.31-0.693-0.693v-9.401c0-0.383,0.31-0.693,0.693-0.693h3.208
			c0.383,0,0.693,0.31,0.693,0.693v0.403c0,0.383-0.31,0.693-0.693,0.693h-2.111v7.208h7.571v-2.28c0-0.383,0.31-0.693,0.693-0.693
			h0.403c0.383,0,0.693,0.31,0.693,0.693v3.377C-219.885,1314.226-220.195,1314.536-220.578,1314.536z"/>
	</g>
	<path d="M-222.368,1304.654l-2.15-2.055h5.627l0.012,5.39l-2.2-2.103l-3.969,4.051c-0.265,0.27-0.699,0.274-0.97,0.009
		l-0.298-0.293c-0.27-0.265-0.274-0.699-0.009-0.97L-222.368,1304.654z"/>
</g>
<g>
	<polygon points="-179.868,1309.21 -179.868,1314.21 -181.868,1314.21 -181.868,1309.21 -186.868,1309.21 -186.868,1307.21 
		-181.868,1307.21 -181.868,1302.21 -179.868,1302.21 -179.868,1307.21 -174.868,1307.21 -174.868,1309.21 	"/>
</g>
<g>
	<path d="M-156.605,1308.913c-0.026,0.325-0.082,0.64-0.166,0.945l0.864,1.212c-0.169,0.395-0.379,0.768-0.623,1.115l-1.505-0.144
		c-0.224,0.227-0.469,0.432-0.732,0.614l-0.122,1.549c-0.366,0.179-0.751,0.323-1.153,0.428l-1.096-1.115
		c-0.157,0.015-0.316,0.023-0.477,0.023s-0.32-0.008-0.477-0.023l-1.096,1.115c-0.402-0.105-0.787-0.249-1.153-0.428l-0.122-1.549
		c-0.263-0.181-0.508-0.387-0.732-0.614l-1.505,0.144c-0.244-0.347-0.453-0.72-0.623-1.115l0.864-1.212
		c-0.084-0.304-0.141-0.62-0.166-0.945l-1.175-0.808c0.038-0.457,0.124-0.9,0.255-1.323l1.354-0.35
		c0.134-0.295,0.296-0.574,0.482-0.835l-0.359-1.295c0.328-0.337,0.693-0.637,1.09-0.894l1.193,0.569
		c0.29-0.139,0.595-0.251,0.912-0.333l0.54-1.184c0.235-0.027,0.474-0.042,0.717-0.042s0.481,0.015,0.717,0.042l0.54,1.184
		c0.317,0.082,0.622,0.194,0.912,0.333l1.193-0.569c0.397,0.256,0.763,0.556,1.09,0.894l-0.359,1.295
		c0.186,0.261,0.348,0.54,0.482,0.835l1.354,0.35c0.131,0.423,0.217,0.866,0.255,1.323L-156.605,1308.913z M-164.606,1308.524
		c0,1.652,1.339,2.991,2.991,2.991s2.991-1.339,2.991-2.991c0-1.652-1.339-2.991-2.991-2.991S-164.606,1306.872-164.606,1308.524z"
		/>
</g>
<g>
	<polygon points="-254.653,1337.713 -254.653,1356.483 -276.632,1356.483 -276.632,1328.654 -264.667,1328.654 -264.667,1337.69 	
		"/>
	<polygon points="-262.685,1328.654 -262.685,1335.708 -254.653,1335.708 	"/>
</g>
<g>
	<path d="M-208.938,1315.751v-10.567c0-0.12,0.053-0.234,0.145-0.312l5.925-4.984c0.205-0.172,0.503-0.173,0.708-0.001l5.961,4.985
		c0.092,0.077,0.146,0.192,0.146,0.313v10.566h-4.507v-4.855h-4.001v4.855H-208.938z"/>
</g>
<g>
	<rect x="-132.349" y="1304.276" width="3.963" height="3.963"/>
	<rect x="-126.333" y="1304.276" width="3.963" height="3.963"/>
	<rect x="-132.349" y="1310.292" width="3.963" height="3.963"/>
	<rect x="-126.333" y="1310.292" width="3.963" height="3.963"/>
</g>
<g>
	<polygon points="-141.263,1313.21 -145.721,1307.32 -150.179,1313.21 	"/>
</g>
<g>
	<g id="fEmpNQ.tif_1_">
		<g>
			<path d="M-103.728,1314.759c-2.779,0-5.506,0-8.279,0c-0.33-3.064-0.66-5.072-0.992-8.152c3.417,0,6.816,0,10.26,0
				C-103.068,1309.671-103.397,1311.677-103.728,1314.759z"/>
		</g>
	</g>
	<path d="M-102.737,1303.211c0,0,0,1.369,0,1.902c-3.42,0-6.841,0-10.261,0c0-0.533,0-1.902,0-1.902h4.002v-0.922h2.256v0.922
		H-102.737z"/>
</g>
<g>
	<g>
		<path d="M-232.076,1469.127c-24.376,0-44.208-19.832-44.208-44.208s19.831-44.209,44.208-44.209s44.208,19.832,44.208,44.208
			S-207.7,1469.127-232.076,1469.127z M-232.076,1383.71c-22.722,0-41.208,18.486-41.208,41.208
			c0,22.722,18.486,41.208,41.208,41.208c22.723,0,41.208-18.486,41.208-41.208C-190.868,1402.196-209.354,1383.71-232.076,1383.71z
			"/>
	</g>
	<rect x="-234.909" y="1414.335" width="5.014" height="28.75"/>
	<circle cx="-232.402" cy="1402.929" r="3.531"/>
</g>
<g>
	<path d="M-104.771,1387.21v73.833h-55.5v-70.833h34.4l0.006-3h-41.573v76.833h65.667v-76.833H-104.771z"/>
	<rect x="-151.868" y="1393.21" width="23" height="3"/>
	<rect x="-151.868" y="1419.21" width="43" height="3"/>
	<rect x="-151.868" y="1428.21" width="43" height="3"/>
	<rect x="-118.868" y="1453.21" width="10" height="3"/>
	<path d="M-123.868,1387.21v-3h17v26.762l-8.5-7.286l-8.5,7.286v-20.762 M-115.368,1399.734l5.5,4.714v-17.238h-11v3v14.238
		L-115.368,1399.734z"/>
</g>
<g>
	<g>
		<path d="M-12.535,1463.215c-0.252,0-0.394-0.005-0.394-0.005h-23.939l-0.569-0.112l-19.5-8l-0.931-1.388v-30l1.5-1.5h5.644
			c2.457-4.157,10.22-17.239,11.672-19.006c0.512-1.175,0.258-7.349-0.307-12.454l0.194-0.919c0.59-1.016,2.376-2.733,5.326-2.733
			c2.241,0,4.765,0.978,7.501,2.906c3.523,2.483,4.769,8.063,3.702,16.587c-0.489,3.905-1.348,7.504-1.913,9.619h17.514
			c0.643,0.023,5.838,0.305,8.121,3.211c0.934,1.188,1.256,2.659,0.932,4.255c-0.407,2.005-1.76,3.362-3.284,4.274
			c0.51,0.296,0.999,0.661,1.441,1.111c1.282,1.306,1.912,3.054,1.872,5.196c-0.046,2.513-1.756,4.161-4.108,5.151
			c1.747,1.074,3.026,2.726,3.026,5.181c0,3.315-2.529,5.239-5.476,6.273c1.428,1.132,2.476,2.843,2.476,5.359
			C-2.035,1461.378-7.459,1463.215-12.535,1463.215z M-36.572,1460.21h23.704c0.072,0.002,0.169,0.005,0.333,0.005
			c1.252,0,7.5-0.192,7.5-3.993c0-4.196-4.934-4.321-5.496-4.321l-0.034-3c0.085-0.002,8.53-0.292,8.53-4.311
			c0-3.856-6.686-3.951-6.971-3.953l-0.028-1.5l0.003-0.416l-0.014-1.084c2.269-0.001,8.041-0.621,8.093-3.434
			c0.024-1.326-0.307-2.32-1.014-3.04c-1.267-1.29-3.459-1.43-4.342-1.43c-0.249,0-0.407,0.011-0.434,0.013l-0.289-2.985
			c0.052-0.006,5.501-0.697,6.107-3.683c0.15-0.736,0.038-1.309-0.351-1.803c-1.218-1.551-4.697-2.065-5.82-2.065h-19.442
			l-1.432-1.946c1.757-5.642,5.165-21.097-0.099-24.807c-2.221-1.565-4.163-2.359-5.773-2.359c-1.324,0-2.104,0.562-2.472,0.931
			c0.861,8.061,0.714,12.802-0.436,14.096c-0.902,1.015-7.734,12.406-11.829,19.348l-1.29,0.737h-5v27.494L-36.572,1460.21z"/>
	</g>
	<g>
		<path d="M-64.368,1462.21h-10.25l-1.474-1.224l-8.25-44l1.474-1.776h18.5l1.5,1.5v44L-64.368,1462.21z M-73.373,1459.21h7.505v-41
			H-81.06L-73.373,1459.21z"/>
	</g>
</g>
<g>
	<path d="M-85.451,1312.877c-0.133,0-0.26-0.053-0.354-0.146l-6.151-6.151c-0.195-0.195-0.195-0.512,0-0.707
		c0.195-0.195,0.512-0.195,0.707,0l5.797,5.798l5.756-5.756c0.195-0.195,0.512-0.195,0.707,0c0.195,0.195,0.195,0.512,0,0.707
		l-6.109,6.109C-85.192,1312.824-85.319,1312.877-85.451,1312.877z"/>
</g>
<g>
	<path d="M-255.002,1513.118c0,6.002-4.866,10.868-10.868,10.868s-10.868-4.866-10.868-10.868c0-6.002,4.866-10.868,10.868-10.868
		S-255.002,1507.116-255.002,1513.118z M-259.597,1509.771l-1.946-1.06l-6.374,6.374l-2.339-2.339l-1.469,1.469l3.808,3.846
		L-259.597,1509.771z"/>
</g>
<g>
	<path d="M-231.869,1503.25c5.441,0,9.868,4.427,9.868,9.867c0,5.441-4.427,9.868-9.868,9.868s-9.868-4.427-9.868-9.868
		C-241.737,1507.677-237.31,1503.25-231.869,1503.25 M-231.869,1502.25c-6.002,0-10.868,4.865-10.868,10.867
		s4.866,10.868,10.868,10.868s10.868-4.866,10.868-10.868C-221.001,1507.115-225.867,1502.25-231.869,1502.25L-231.869,1502.25z"/>
</g>
<g>
	<path d="M-122.647,1571.214l-3.739-6.545c-0.512,0.178-1.061,0.275-1.633,0.275c-0.628,0-1.229-0.117-1.783-0.33l-3.973,7.096
		l-1.649-1.373l3.812-6.928c-0.86-0.896-1.39-2.112-1.39-3.449c0-2.748,2.236-4.983,4.983-4.983s4.983,2.235,4.983,4.983
		c0,1.399-0.579,2.665-1.511,3.571l3.663,6.405L-122.647,1571.214z M-128.018,1557.143c-1.553,0-2.817,1.264-2.817,2.817
		s1.264,2.817,2.817,2.817s2.817-1.264,2.817-2.817S-126.465,1557.143-128.018,1557.143z"/>
	<path d="M-120.977,1569.939c0.628-0.286,1.325-0.446,2.059-0.446c2.748,0,4.983,2.235,4.983,4.983s-2.236,4.983-4.983,4.983
		c-1.972,0-3.681-1.152-4.488-2.818c-0.317-0.655-0.495-1.39-0.495-2.165c0-1.211,0.434-2.323,1.155-3.187L-120.977,1569.939z
		 M-118.918,1571.66c-1.553,0-2.817,1.264-2.817,2.817s1.264,2.817,2.817,2.817c1.553,0,2.817-1.264,2.817-2.817
		S-117.365,1571.66-118.918,1571.66z"/>
	<polygon points="-123.406,1576.509 -133.494,1576.435 -133.001,1574.21 -123.901,1574.21 	"/>
	<path d="M-134.009,1571.476c0.632,0.835,1.007,1.875,1.007,3.001c0,0.773-0.177,1.505-0.492,2.159
		c-0.806,1.67-2.516,2.825-4.491,2.825c-2.748,0-4.983-2.235-4.983-4.983s2.236-4.983,4.983-4.983c0.818,0,1.591,0.198,2.273,0.549
		L-134.009,1571.476z M-137.985,1571.66c-1.553,0-2.817,1.264-2.817,2.817s1.264,2.817,2.817,2.817s2.817-1.264,2.817-2.817
		S-136.432,1571.66-137.985,1571.66z"/>
</g>
<g>
	<g>
		<path d="M-162.868,1576.21h-6v-3h5.724c0.657-0.273,2.776-1.306,2.776-3.25c0-3.332-2.355-3.93-2.624-3.986
			c-0.408-0.087-0.772-0.342-0.986-0.699c-0.214-0.358-0.28-0.791-0.164-1.191c0.047-0.169,1.167-4.31-2.13-6.17
			c-3.9-2.204-7.071,1.438-7.205,1.594c-0.377,0.44-0.955,0.708-1.514,0.556c-0.56-0.151-0.962-0.53-1.065-1.101
			c-0.106-0.229-0.658-0.5-1.782-0.282c-1.292,0.25-1.719,2.27-1.723,2.29c-0.109,0.56-0.528,1.019-1.078,1.169
			c-0.244,0.068-6.063,1.75-6.063,6.507c0,3.807,3.222,4.478,3.77,4.564h5.064v3h-5.166c-0.059,0-0.118-0.004-0.177-0.011
			c-2.245-0.267-6.49-2.188-6.49-7.554c0-5.772,5.312-8.33,7.427-9.119c0.503-1.489,1.683-3.368,3.865-3.792
			c1.794-0.347,3.062,0.028,3.908,0.624c2.149-1.713,5.808-3.257,9.704-1.059c3.56,2.009,4.101,5.727,3.809,8.233
			c1.691,0.861,3.62,2.805,3.62,6.427c0,4.473-4.827,6.107-5.032,6.175C-162.551,1576.185-162.709,1576.21-162.868,1576.21z"/>
	</g>
	<g>
		<path d="M-172.141,1567.362l2.25,2.285c0.21,0.21,0.486,0.315,0.761,0.315s0.551-0.105,0.761-0.315
			c0.421-0.421,0.421-1.102,0-1.522l-4.113-4.148c-0.421-0.421-1.102-0.421-1.522,0l-4.192,4.164c-0.421,0.421-0.421,1.102,0,1.522
			s1.102,0.421,1.522,0l2.33-2.301l-0.039,11.299c0,0.608,0.493,1.102,1.101,1.102l0,0c0.608,0,1.101-0.493,1.101-1.101
			L-172.141,1567.362z"/>
	</g>
</g>
<g>
	<path d="M-254.531,1568.04v5.999h-17.928v-6.1l-2.558,0.004v7.499c0,0.638,0.518,1.156,1.156,1.156h20.731
		c0.638,0,1.156-0.518,1.156-1.156v-7.412L-254.531,1568.04z"/>
	<path d="M-264.637,1567.866l-2.25-2.285c-0.21-0.21-0.486-0.315-0.761-0.315s-0.551,0.105-0.761,0.315
		c-0.421,0.421-0.421,1.102,0,1.522l4.113,4.148c0.421,0.421,1.102,0.421,1.522,0l4.192-4.164c0.421-0.421,0.421-1.102,0-1.522
		s-1.102-0.421-1.522,0l-2.33,2.301l0.039-11.299c0-0.608-0.493-1.102-1.101-1.102l0,0c-0.608,0-1.101,0.493-1.101,1.102
		L-264.637,1567.866z"/>
</g>
<g>
	<g>
		<path d="M-207.54,1556.702v23.215c0,0.982-0.796,1.779-1.779,1.779h-26.351c-0.983,0-1.779-0.797-1.779-1.779v-23.214
			c0-0.525,0.425-0.95,0.95-0.95h28.009C-207.965,1555.752-207.54,1556.177-207.54,1556.702z M-235.337,1579.335l25.47-0.031
			l0.041-18.042h-25.51L-235.337,1579.335L-235.337,1579.335z"/>
	</g>
	<g>
		<g>
			<path d="M-226.663,1573.726c-0.186,0-0.371-0.071-0.513-0.213l-2.257-2.257c-0.283-0.283-0.283-0.743,0-1.026l2.253-2.253
				c0.283-0.283,0.742-0.283,1.026,0c0.283,0.283,0.283,0.742,0,1.026l-1.74,1.741l1.744,1.744c0.283,0.283,0.283,0.742,0,1.025
				C-226.292,1573.655-226.478,1573.726-226.663,1573.726z"/>
		</g>
		<g>
			<path d="M-218.322,1573.726c-0.186,0-0.372-0.071-0.513-0.213c-0.283-0.283-0.283-0.742,0-1.025l1.741-1.741l-1.745-1.744
				c-0.283-0.283-0.283-0.742,0-1.026c0.283-0.283,0.743-0.283,1.026,0l2.257,2.257c0.136,0.136,0.213,0.32,0.213,0.513
				c0,0.192-0.077,0.377-0.213,0.513l-2.254,2.254C-217.951,1573.655-218.137,1573.726-218.322,1573.726z"/>
		</g>
		<g>
			<path d="M-223.534,1575.402c-0.059,0-0.12-0.007-0.18-0.022c-0.388-0.099-0.622-0.494-0.523-0.882l1.843-7.222
				c0.099-0.388,0.496-0.622,0.882-0.524c0.389,0.099,0.623,0.494,0.524,0.882l-1.844,7.222
				C-222.915,1575.184-223.21,1575.402-223.534,1575.402z"/>
		</g>
	</g>
</g>
<g>
	<path d="M-241.27,1624.111c-0.002,9.606-7.791,17.392-17.397,17.389s-17.392-7.791-17.389-17.397
		c0.002-9.606,7.791-17.392,17.397-17.389C-249.053,1606.716-241.267,1614.505-241.27,1624.111z M-254.083,1622.493
		c0.527-0.837,2.245-3.761,2.246-6.23c0.001-3.763-3.06-6.825-6.823-6.826s-6.825,3.06-6.826,6.823
		c-0.001,2.468,1.717,5.393,2.243,6.231c2.111,3.36,3.775,3.862,4.579,3.862C-257.86,1626.353-256.196,1625.851-254.083,1622.493z
		 M-246.156,1634.308c0.124-0.204,0.189-0.438,0.189-0.677c0.001-3.228-0.806-5.602-2.398-7.057
		c-1.394-1.275-2.993-1.465-3.822-1.465c-0.356,0-0.593,0.034-0.658,0.044c-0.306,0.05-0.585,0.207-0.786,0.443
		c-0.69,0.81-2.938,2.913-5.034,2.912c-2.118,0-4.641-2.145-5.433-2.971c-0.195-0.204-0.45-0.34-0.728-0.386
		c-0.064-0.011-0.299-0.046-0.65-0.046c-0.812,0-2.376,0.192-3.737,1.48c-1.536,1.453-2.315,3.822-2.315,7.04
		c0,0.239,0.065,0.473,0.189,0.677c0.172,0.284,4.299,5.957,12.59,5.958C-250.458,1640.261-246.327,1634.591-246.156,1634.308z"/>
</g>
<g>
	<path d="M-192.3,1623.322c-0.002,9.606-7.791,17.392-17.397,17.389s-17.392-7.791-17.389-17.397
		c0.003-9.606,7.791-17.392,17.397-17.389C-200.083,1605.928-192.298,1613.716-192.3,1623.322z"/>
	<path fill="#FFFFFF" d="M-208.48,1621.002l-0.003,12.145l-2.385-0.001l0.003-12.991L-208.48,1621.002z"/>
	<path fill="#FFFFFF" d="M-217.631,1619.929c-0.094-3.17,1.579-4.786,3.756-4.785c1.325,0,2.335,0.413,4.481,1.427
		c1.578,0.761,2.745,1.332,3.913,1.332c1.136,0,1.673-0.919,1.705-2.662h1.862c0.157,3.518-1.642,4.786-3.599,4.785
		c-1.262,0-2.399-0.381-4.575-1.396c-1.483-0.73-2.651-1.395-3.787-1.395s-1.83,0.792-1.862,2.693L-217.631,1619.929z"/>
</g>
<g>
	<path d="M-69.067,1565.29c0.506-0.804,2.155-3.611,2.156-5.981c0.001-3.613-2.938-6.553-6.551-6.554
		c-3.613-0.001-6.553,2.938-6.554,6.551c-0.001,2.37,1.649,5.178,2.154,5.982c2.027,3.226,3.627,3.378,4.399,3.378
		C-72.691,1568.666-71.096,1568.514-69.067,1565.29z"/>
	<path d="M-61.335,1577.671c0,0,0-0.977,0-1.207c0.001-3.099-0.774-5.379-2.302-6.776c-1.338-1.224-2.874-1.406-3.67-1.406
		c-0.342,0-0.569,0.033-0.632,0.042c-0.294,0.048-0.562,0.199-0.755,0.425c-0.662,0.778-2.821,3.013-4.833,3.012
		c-2.034,0-4.456-2.275-5.216-3.068c-0.187-0.196-0.432-0.326-0.699-0.371c-0.061-0.01-0.287-0.044-0.624-0.044
		c-0.78,0-2.281,0.184-3.588,1.421c-1.475,1.395-2.223,3.67-2.223,6.759c0,0.229,0,1.207,0,1.207L-61.335,1577.671z"/>
</g>
<g>
	<path d="M4.264,1574.237h-14.457c-0.816,0-1.48-0.664-1.48-1.48v-17.095c0-0.815,0.664-1.479,1.48-1.479H4.264
		c0.816,0,1.48,0.664,1.48,1.479v17.095C5.744,1573.573,5.08,1574.237,4.264,1574.237z M-9.172,1571.737H3.244v-15.055H-9.172
		V1571.737z"/>
</g>
<g>
	<path d="M8.56,1578.244H-5.984c-0.69,0-1.25-0.56-1.25-1.25s0.56-1.25,1.25-1.25H7.453v-16.075c0-0.69,0.56-1.25,1.25-1.25
		s1.25,0.56,1.25,1.25v17.183C9.953,1577.619,9.328,1578.244,8.56,1578.244z"/>
</g>
<g>
	<path d="M40.172,1578.239h-14.97c-0.816,0-1.48-0.664-1.48-1.479v-19.987c0-0.816,0.664-1.48,1.48-1.48h14.97
		c0.816,0,1.48,0.664,1.48,1.48v4.488c0,0.69-0.56,1.25-1.25,1.25s-1.25-0.56-1.25-1.25v-3.469h-12.93v17.947h12.93v-3.322
		c0-0.69,0.56-1.25,1.25-1.25s1.25,0.56,1.25,1.25v4.343C41.652,1577.574,40.988,1578.239,40.172,1578.239z"/>
</g>
<g>
	<path d="M46.301,1567.906l-2.285,2.25c-0.21,0.21-0.315,0.486-0.315,0.761c0,0.275,0.105,0.551,0.315,0.761
		c0.421,0.421,1.102,0.421,1.522,0l4.148-4.113c0.421-0.421,0.421-1.102,0-1.522l-4.164-4.192c-0.421-0.421-1.102-0.421-1.522,0
		c-0.42,0.421-0.421,1.102,0,1.522l2.301,2.33l-12.299-0.039c-0.608,0-1.102,0.493-1.102,1.101l0,0c0,0.608,0.493,1.101,1.101,1.101
		L46.301,1567.906z"/>
</g>
<path d="M-27.864,1558.253v1.689h-18.774v-1.689c0-1.19,1.873-1.759,2.951-1.759h2.967l0-1.32c0-1.509,1.223-2.731,2.732-2.731
	h1.432c1.509,0,2.732,1.224,2.732,2.733l0,1.319h3.009C-29.737,1556.493-27.864,1557.062-27.864,1558.253z M-35.345,1554.713h-3.812
	v1.75h3.812V1554.713z"/>
<path d="M-30.782,1577.984H-43.72l-1.365-16.292h15.667L-30.782,1577.984z M-36.501,1574.744v-9.438c0-0.414-0.336-0.75-0.75-0.75
	s-0.75,0.336-0.75,0.75v9.438c0,0.414,0.336,0.75,0.75,0.75S-36.501,1575.158-36.501,1574.744z M-32.644,1574.791l0.815-9.402
	c0.036-0.412-0.27-0.776-0.682-0.812c-0.413-0.036-0.776,0.27-0.812,0.682l-0.815,9.402c-0.036,0.413,0.27,0.776,0.682,0.812
	C-33.044,1575.509-32.68,1575.204-32.644,1574.791z M-41.031,1575.474c0.413-0.036,0.718-0.399,0.682-0.812l-0.815-9.402
	c-0.036-0.412-0.399-0.718-0.812-0.682c-0.413,0.036-0.718,0.399-0.682,0.812l0.815,9.402
	C-41.807,1575.204-41.443,1575.509-41.031,1575.474z"/>
</svg>
