<?xml version="1.0" encoding="utf-8"?>
<!-- Generator: Adobe Illustrator 18.1.1, SVG Export Plug-In . SVG Version: 6.00 Build 0)  -->
<svg version="1.1" id="Layer_1" xmlns="http://www.w3.org/2000/svg" xmlns:xlink="http://www.w3.org/1999/xlink" x="0px" y="0px"
	 width="680.444px" height="442.741px" viewBox="0 0 680.444 442.741" enable-background="new 0 0 680.444 442.741"
	 xml:space="preserve">
<g>
	
		<line fill="#FA8669" stroke="#8B8B8B" stroke-width="0.5" stroke-miterlimit="10" x1="75.441" y1="52.167" x2="57.694" y2="69.914"/>
	
		<line fill="#FA8669" stroke="#8B8B8B" stroke-width="0.5" stroke-miterlimit="10" x1="57.559" y1="52.167" x2="75.374" y2="69.982"/>
</g>
<g>
	<g>
		<path fill="#8B8B8B" d="M24.714,32.514l-3.592-4.715c-0.198-0.26-0.198-0.621,0-0.882l3.592-4.716
			c0.243-0.32,0.7-0.381,1.02-0.138l0.574,0.437c0.32,0.243,0.381,0.7,0.138,1.02l-2.923,3.837l2.923,3.837
			c0.243,0.32,0.182,0.776-0.138,1.02l-0.574,0.437C25.414,32.895,24.957,32.834,24.714,32.514z"/>
	</g>
	<g>
		<path fill="#8B8B8B" d="M30.349,32.647l-0.581-0.429c-0.323-0.239-0.392-0.694-0.153-1.017l2.837-3.844l-2.837-3.844
			c-0.239-0.323-0.17-0.779,0.153-1.017l0.581-0.429c0.323-0.239,0.779-0.17,1.017,0.153l3.472,4.704
			c0.189,0.257,0.189,0.607,0,0.864l-3.472,4.704C31.127,32.817,30.672,32.886,30.349,32.647z"/>
	</g>
</g>
<g>
	<g>
		<path fill="#8B8B8B" d="M55.792,32.784H45.193c-0.368,0-0.667-0.298-0.667-0.667v-4.906c0-0.368,0.298-0.667,0.667-0.667h0.404
			c0.368,0,0.667,0.298,0.667,0.667v3.17c0,0.368,0.298,0.667,0.667,0.667h7.125c0.368,0,0.667-0.298,0.667-0.667v-3.17
			c0-0.368,0.298-0.667,0.667-0.667h0.404c0.368,0,0.667,0.298,0.667,0.667v4.906C56.458,32.486,56.16,32.784,55.792,32.784z"/>
	</g>
	<path fill="#8B8B8B" d="M51.485,28.212c0,0.354-0.287,0.64-0.64,0.64H50.14c-0.354,0-0.64-0.287-0.64-0.64v-3.978l-3.87-0.016
		l4.892-4.02l4.771,4.036h-3.809V28.212z"/>
</g>
<g>
	<g>
		<path fill="#8B8B8B" d="M77.29,33.326h-9.763c-0.383,0-0.693-0.31-0.693-0.693v-9.401c0-0.383,0.31-0.693,0.693-0.693h3.208
			c0.383,0,0.693,0.31,0.693,0.693v0.403c0,0.383-0.31,0.693-0.693,0.693h-2.111v7.208h7.571v-2.28c0-0.383,0.31-0.693,0.693-0.693
			h0.403c0.383,0,0.693,0.31,0.693,0.693v3.377C77.983,33.016,77.673,33.326,77.29,33.326z"/>
	</g>
	<path fill="#8B8B8B" d="M75.5,23.444l-2.15-2.055h5.627l0.012,5.39l-2.2-2.103l-3.969,4.051c-0.265,0.27-0.699,0.274-0.97,0.009
		l-0.298-0.293c-0.27-0.265-0.274-0.699-0.009-0.97L75.5,23.444z"/>
</g>
<g>
	<polygon fill="#8B8B8B" points="118,28 118,33 116,33 116,28 111,28 111,26 116,26 116,21 118,21 118,26 123,26 123,28 	"/>
</g>
<g>
	<path fill="#8B8B8B" d="M141.263,27.703c-0.026,0.325-0.082,0.64-0.166,0.945l0.864,1.212c-0.169,0.395-0.379,0.768-0.623,1.115
		l-1.505-0.144c-0.224,0.227-0.469,0.432-0.732,0.614l-0.122,1.549c-0.366,0.179-0.751,0.323-1.153,0.428l-1.096-1.115
		c-0.157,0.015-0.316,0.023-0.477,0.023s-0.32-0.008-0.477-0.023l-1.096,1.115c-0.402-0.105-0.787-0.249-1.153-0.428l-0.122-1.549
		c-0.263-0.181-0.508-0.387-0.732-0.614l-1.505,0.144c-0.244-0.347-0.453-0.72-0.623-1.115l0.864-1.212
		c-0.084-0.304-0.141-0.62-0.166-0.945l-1.175-0.808c0.038-0.457,0.124-0.9,0.255-1.323l1.354-0.35
		c0.134-0.295,0.296-0.574,0.482-0.835l-0.359-1.295c0.328-0.337,0.693-0.637,1.09-0.894l1.193,0.569
		c0.29-0.139,0.595-0.251,0.912-0.333l0.54-1.184c0.235-0.027,0.474-0.042,0.717-0.042c0.243,0,0.481,0.015,0.717,0.042l0.54,1.184
		c0.317,0.082,0.622,0.194,0.912,0.333l1.193-0.569c0.397,0.256,0.763,0.556,1.09,0.894l-0.359,1.295
		c0.186,0.261,0.348,0.54,0.482,0.835l1.354,0.35c0.131,0.423,0.217,0.866,0.255,1.323L141.263,27.703z M133.262,27.314
		c0,1.652,1.339,2.991,2.991,2.991s2.991-1.339,2.991-2.991s-1.339-2.991-2.991-2.991S133.262,25.662,133.262,27.314z"/>
</g>
<g>
	<polygon fill="#8B8B8B" points="43.215,56.503 43.215,75.273 21.236,75.273 21.236,47.444 33.201,47.444 33.201,56.48 	"/>
	<polygon fill="#8B8B8B" points="35.183,47.444 35.183,54.498 43.215,54.498 	"/>
</g>
<g>
	<path fill="#8B8B8B" d="M88.93,34.541V23.974c0-0.12,0.053-0.234,0.145-0.312L95,18.678c0.205-0.172,0.503-0.173,0.708-0.001
		l5.961,4.985c0.092,0.077,0.146,0.192,0.146,0.313v10.566h-4.507v-4.855h-4.001v4.855H88.93z"/>
</g>
<g>
	<rect x="165.519" y="23.066" fill="#8B8B8B" width="3.963" height="3.963"/>
	<rect x="171.535" y="23.066" fill="#8B8B8B" width="3.963" height="3.963"/>
	<rect x="165.519" y="29.082" fill="#8B8B8B" width="3.963" height="3.963"/>
	<rect x="171.535" y="29.082" fill="#8B8B8B" width="3.963" height="3.963"/>
</g>
<g>
	<polygon fill="#8B8B8B" points="156.605,32 152.147,26.11 147.689,32 	"/>
</g>
<g>
	<g id="fEmpNQ.tif_1_">
		<g>
			<path fill="#8B8B8B" d="M194.14,33.549c-2.779,0-5.506,0-8.279,0c-0.33-3.064-0.66-5.072-0.992-8.152c3.417,0,6.816,0,10.26,0
				C194.8,28.461,194.471,30.467,194.14,33.549z"/>
		</g>
	</g>
	<path fill="#8B8B8B" d="M195.131,22.001c0,0,0,1.369,0,1.902c-3.42,0-6.841,0-10.261,0c0-0.533,0-1.902,0-1.902h4.002l0-0.922
		h2.256l0,0.922H195.131z"/>
</g>
<g>
	<g>
		<path fill="#8B8B8B" d="M65.792,187.917c-24.376,0-44.208-19.832-44.208-44.208S41.415,99.5,65.792,99.5S110,119.332,110,143.708
			S90.168,187.917,65.792,187.917z M65.792,102.5c-22.722,0-41.208,18.486-41.208,41.208c0,22.722,18.486,41.208,41.208,41.208
			c22.723,0,41.208-18.486,41.208-41.208C107,120.986,88.514,102.5,65.792,102.5z"/>
	</g>
	<rect x="62.959" y="133.125" fill="#8B8B8B" width="5.014" height="28.75"/>
	<circle fill="#8B8B8B" cx="65.466" cy="121.719" r="3.531"/>
</g>
<g>
	<path fill="#8B8B8B" d="M193.097,109 M193.097,106v73.833h-55.5V109h34.4l0.006-3H130.43v76.833h65.667V106H193.097z"/>
	<rect x="146" y="112" fill="#8B8B8B" width="23" height="3"/>
	<rect x="146" y="138" fill="#8B8B8B" width="43" height="3"/>
	<rect x="146" y="147" fill="#8B8B8B" width="43" height="3"/>
	<rect x="179" y="172" fill="#8B8B8B" width="10" height="3"/>
	<path fill="#8B8B8B" d="M174,106v-3h17v26.762l-8.5-7.286l-8.5,7.286V109 M182.5,118.524l5.5,4.714V106h-11v3v14.238L182.5,118.524
		z"/>
</g>
<g>
	<g>
		<path fill="#8B8B8B" d="M285.333,182.005c-0.252,0-0.394-0.005-0.394-0.005H261l-0.569-0.112l-19.5-8L240,172.5v-30l1.5-1.5h5.644
			c2.457-4.157,10.22-17.239,11.672-19.006c0.512-1.175,0.258-7.349-0.307-12.454l0.194-0.919c0.59-1.016,2.376-2.733,5.326-2.733
			c2.241,0,4.765,0.978,7.501,2.906c3.523,2.483,4.769,8.063,3.702,16.587c-0.489,3.905-1.348,7.504-1.913,9.619h17.514
			c0.643,0.023,5.838,0.305,8.121,3.211c0.934,1.188,1.256,2.659,0.932,4.255c-0.407,2.005-1.76,3.362-3.284,4.274
			c0.51,0.296,0.999,0.661,1.441,1.111c1.282,1.306,1.912,3.054,1.872,5.196c-0.046,2.513-1.756,4.161-4.108,5.151
			c1.747,1.074,3.026,2.726,3.026,5.181c0,3.315-2.529,5.239-5.476,6.273c1.428,1.132,2.476,2.843,2.476,5.359
			C295.833,180.168,290.409,182.005,285.333,182.005z M261.296,179H285c0.072,0.002,0.169,0.005,0.333,0.005
			c1.252,0,7.5-0.192,7.5-3.993c0-4.196-4.934-4.321-5.496-4.321l-0.034-3c0.085-0.002,8.53-0.292,8.53-4.311
			c0-3.856-6.686-3.951-6.971-3.953l-0.028-1.5l0.003-0.416l-0.014-1.084c2.269-0.001,8.041-0.621,8.093-3.434
			c0.024-1.326-0.307-2.32-1.014-3.04c-1.267-1.29-3.459-1.43-4.342-1.43c-0.249,0-0.407,0.011-0.434,0.013l-0.289-2.985
			c0.052-0.006,5.501-0.697,6.107-3.683c0.15-0.736,0.038-1.309-0.351-1.803c-1.218-1.551-4.697-2.065-5.82-2.065h-19.442
			l-1.432-1.946c1.757-5.642,5.165-21.097-0.099-24.807c-2.221-1.565-4.163-2.359-5.773-2.359c-1.324,0-2.104,0.562-2.472,0.931
			c0.861,8.061,0.714,12.802-0.436,14.096c-0.902,1.015-7.734,12.406-11.829,19.348L248,144h-5v27.494L261.296,179z"/>
	</g>
	<g>
		<path fill="#8B8B8B" d="M233.5,181h-10.25l-1.474-1.224l-8.25-44L215,134h18.5l1.5,1.5v44L233.5,181z M224.495,178H232v-41
			h-15.192L224.495,178z"/>
	</g>
</g>
<g>
	<path fill="#8B8B8B" d="M212.417,31.667c-0.133,0-0.26-0.053-0.354-0.146l-6.151-6.151c-0.195-0.195-0.195-0.512,0-0.707
		s0.512-0.195,0.707,0l5.797,5.798l5.756-5.756c0.195-0.195,0.512-0.195,0.707,0s0.195,0.512,0,0.707l-6.109,6.109
		C212.676,31.614,212.549,31.667,212.417,31.667z"/>
</g>
<g>
	<path fill="#8B8B8B" d="M42.866,231.908c0,6.002-4.866,10.868-10.868,10.868s-10.868-4.866-10.868-10.868
		s4.866-10.868,10.868-10.868S42.866,225.906,42.866,231.908z M38.271,228.561l-1.946-1.06l-6.374,6.374l-2.339-2.339l-1.469,1.469
		l3.808,3.846L38.271,228.561z"/>
</g>
<g>
	<path fill="#8B8B8B" d="M65.999,222.04c5.441,0,9.868,4.427,9.868,9.867c0,5.441-4.427,9.868-9.868,9.868s-9.868-4.427-9.868-9.868
		C56.131,226.467,60.558,222.04,65.999,222.04 M65.999,221.04c-6.002,0-10.868,4.865-10.868,10.867s4.866,10.868,10.868,10.868
		s10.868-4.866,10.868-10.868S72.001,221.04,65.999,221.04L65.999,221.04z"/>
</g>
<g>
	<path fill="#8B8B8B" d="M175.221,290.004l-3.739-6.545c-0.512,0.178-1.061,0.275-1.633,0.275c-0.628,0-1.229-0.117-1.783-0.33
		l-3.973,7.096l-1.649-1.373l3.812-6.928c-0.86-0.896-1.39-2.112-1.39-3.449c0-2.748,2.236-4.983,4.983-4.983
		s4.983,2.235,4.983,4.983c0,1.399-0.579,2.665-1.511,3.571l3.663,6.405L175.221,290.004z M169.85,275.933
		c-1.553,0-2.817,1.264-2.817,2.817s1.264,2.817,2.817,2.817c1.553,0,2.817-1.264,2.817-2.817S171.403,275.933,169.85,275.933z"/>
	<path fill="#8B8B8B" d="M176.891,288.729c0.628-0.286,1.325-0.446,2.059-0.446c2.748,0,4.983,2.235,4.983,4.983
		s-2.236,4.983-4.983,4.983c-1.972,0-3.681-1.152-4.488-2.818c-0.317-0.655-0.495-1.39-0.495-2.165c0-1.211,0.434-2.323,1.155-3.187
		L176.891,288.729z M178.95,290.45c-1.553,0-2.817,1.264-2.817,2.817s1.264,2.817,2.817,2.817s2.817-1.264,2.817-2.817
		S180.503,290.45,178.95,290.45z"/>
	<polygon fill="#8B8B8B" points="174.462,295.299 164.374,295.225 164.867,293 173.967,293 	"/>
	<path fill="#8B8B8B" d="M163.859,290.266c0.632,0.835,1.007,1.875,1.007,3.001c0,0.773-0.177,1.505-0.492,2.159
		c-0.806,1.67-2.516,2.825-4.491,2.825c-2.748,0-4.983-2.235-4.983-4.983s2.236-4.983,4.983-4.983c0.818,0,1.591,0.198,2.273,0.549
		L163.859,290.266z M159.883,290.45c-1.553,0-2.817,1.264-2.817,2.817s1.264,2.817,2.817,2.817c1.553,0,2.817-1.264,2.817-2.817
		S161.436,290.45,159.883,290.45z"/>
</g>
<g>
	<g>
		<path fill="#8B8B8B" d="M135,295h-6v-3h5.724c0.657-0.273,2.776-1.306,2.776-3.25c0-3.333-2.356-3.93-2.625-3.987
			c-0.408-0.086-0.771-0.341-0.985-0.699s-0.28-0.791-0.164-1.191c0.047-0.169,1.167-4.31-2.13-6.17
			c-3.899-2.202-7.073,1.438-7.205,1.594c-0.377,0.44-0.955,0.707-1.513,0.556c-0.56-0.151-0.962-0.53-1.065-1.101
			c-0.106-0.229-0.657-0.501-1.782-0.283c-1.295,0.251-1.717,2.261-1.721,2.281c-0.103,0.568-0.523,1.026-1.08,1.178
			c-0.244,0.068-6.063,1.75-6.063,6.507c0,3.806,3.222,4.478,3.77,4.564H120v3h-5.167c-0.059,0-0.118-0.003-0.177-0.01
			c-2.245-0.267-6.49-2.188-6.49-7.554c0-5.773,5.311-8.331,7.427-9.121c0.503-1.488,1.683-3.368,3.865-3.792
			c1.791-0.347,3.062,0.028,3.908,0.624c2.149-1.714,5.807-3.258,9.705-1.058c3.56,2.008,4.101,5.726,3.809,8.233
			c1.691,0.861,3.621,2.805,3.621,6.427c0,4.473-4.827,6.108-5.032,6.175C135.317,294.975,135.159,295,135,295z"/>
	</g>
	<g>
		<path fill="#8B8B8B" d="M125.727,286.152l2.25,2.285c0.21,0.21,0.486,0.315,0.761,0.315c0.275,0,0.551-0.105,0.761-0.315
			c0.421-0.421,0.421-1.102,0-1.522l-4.113-4.148c-0.421-0.421-1.102-0.421-1.522,0l-4.192,4.164c-0.421,0.421-0.421,1.102,0,1.522
			s1.102,0.421,1.522,0l2.33-2.301l-0.039,11.299c0,0.608,0.493,1.102,1.101,1.102l0,0c0.608,0,1.101-0.493,1.101-1.101
			L125.727,286.152z"/>
	</g>
</g>
<g>
	<path fill="#8B8B8B" d="M43.337,286.83v5.999H25.409v-6.1l-2.558,0.004v7.499c0,0.638,0.518,1.156,1.156,1.156h20.731
		c0.638,0,1.156-0.518,1.156-1.156v-7.412L43.337,286.83z"/>
	<path fill="#8B8B8B" d="M33.231,286.656l-2.25-2.285c-0.21-0.21-0.486-0.315-0.761-0.315s-0.551,0.105-0.761,0.315
		c-0.421,0.421-0.421,1.102,0,1.522l4.113,4.148c0.421,0.421,1.102,0.421,1.522,0l4.192-4.164c0.421-0.421,0.421-1.102,0-1.522
		s-1.102-0.421-1.522,0l-2.33,2.301l0.039-11.299c0-0.608-0.493-1.102-1.101-1.102h0c-0.608,0-1.101,0.493-1.101,1.102
		L33.231,286.656z"/>
</g>
<g>
	<g>
		<path fill="#8B8B8B" d="M90.328,275.492v23.215c0,0.982-0.796,1.779-1.779,1.779H62.198c-0.983,0-1.779-0.797-1.779-1.779v-23.214
			c0-0.525,0.425-0.95,0.95-0.95h28.009C89.903,274.542,90.328,274.967,90.328,275.492z M62.531,298.125l25.47-0.031l0.041-18.042
			h-25.51V298.125z"/>
	</g>
	<g>
		<g>
			<path fill="#8B8B8B" d="M71.205,292.516c-0.186,0-0.371-0.071-0.513-0.213l-2.257-2.257c-0.283-0.283-0.283-0.743,0-1.026
				l2.253-2.253c0.283-0.283,0.742-0.283,1.026,0c0.283,0.283,0.283,0.742,0,1.026l-1.74,1.741l1.744,1.744
				c0.283,0.283,0.283,0.742,0,1.025C71.576,292.445,71.39,292.516,71.205,292.516z"/>
		</g>
		<g>
			<path fill="#8B8B8B" d="M79.546,292.516c-0.186,0-0.372-0.071-0.513-0.213c-0.283-0.283-0.283-0.742,0-1.025l1.741-1.741
				l-1.745-1.744c-0.283-0.283-0.283-0.742,0-1.026c0.283-0.283,0.743-0.283,1.026,0l2.257,2.257
				c0.136,0.136,0.213,0.32,0.213,0.513c0,0.192-0.077,0.377-0.213,0.513l-2.254,2.254
				C79.917,292.445,79.731,292.516,79.546,292.516z"/>
		</g>
		<g>
			<path fill="#8B8B8B" d="M74.334,294.192c-0.059,0-0.12-0.007-0.18-0.022c-0.388-0.099-0.622-0.494-0.523-0.882l1.843-7.222
				c0.099-0.388,0.496-0.622,0.882-0.524c0.389,0.099,0.623,0.494,0.524,0.882l-1.844,7.222
				C74.953,293.974,74.658,294.192,74.334,294.192z"/>
		</g>
	</g>
</g>
<g>
	<path fill="#8B8B8B" d="M56.598,342.901c-0.002,9.606-7.791,17.392-17.397,17.389s-17.392-7.791-17.389-17.397
		c0.002-9.606,7.791-17.392,17.397-17.389C48.815,325.506,56.601,333.295,56.598,342.901z M43.785,341.283
		c0.527-0.837,2.245-3.761,2.246-6.23c0.001-3.763-3.06-6.825-6.823-6.826c-3.763-0.001-6.825,3.06-6.826,6.823
		c-0.001,2.468,1.717,5.393,2.243,6.231c2.111,3.36,3.775,3.862,4.579,3.862C40.008,345.143,41.672,344.641,43.785,341.283z
		 M51.712,353.098c0.124-0.204,0.189-0.438,0.189-0.677c0.001-3.228-0.806-5.602-2.398-7.057c-1.394-1.275-2.993-1.465-3.822-1.465
		c-0.356,0-0.593,0.034-0.658,0.044c-0.306,0.05-0.585,0.207-0.786,0.443c-0.69,0.81-2.938,2.913-5.034,2.912
		c-2.118,0-4.641-2.145-5.433-2.971c-0.195-0.204-0.45-0.34-0.728-0.386c-0.064-0.011-0.299-0.046-0.65-0.046
		c-0.812,0-2.376,0.192-3.737,1.48c-1.536,1.453-2.315,3.822-2.315,7.04c0,0.239,0.065,0.473,0.189,0.677
		c0.172,0.284,4.299,5.957,12.59,5.958S51.541,353.381,51.712,353.098z"/>
</g>
<g>
	<path fill="#8B8B8B" d="M111.849,341.112c-0.002,9.606-7.791,17.392-17.397,17.389s-17.392-7.791-17.389-17.397
		s7.791-17.392,17.397-17.389S111.851,331.506,111.849,341.112z"/>
	<path fill="#FFFFFF" d="M95.746,338.792l-0.003,12.145l-2.385-0.001l0.003-12.991L95.746,338.792z"/>
	<path fill="#FFFFFF" d="M86.595,337.719c-0.094-3.17,1.579-4.786,3.756-4.785c1.325,0,2.335,0.413,4.481,1.427
		c1.578,0.761,2.745,1.332,3.913,1.332c1.136,0,1.673-0.919,1.705-2.662h1.862c0.157,3.518-1.642,4.786-3.599,4.785
		c-1.262,0-2.399-0.381-4.575-1.396c-1.483-0.73-2.651-1.395-3.787-1.395s-1.83,0.792-1.862,2.693L86.595,337.719z"/>
</g>
<g>
	<path fill="#8B8B8B" d="M227.006,283.948c0.506-0.804,2.155-3.611,2.156-5.981c0.001-3.613-2.938-6.553-6.551-6.554
		c-3.613-0.001-6.553,2.938-6.554,6.551c-0.001,2.37,1.649,5.178,2.154,5.982c2.027,3.226,3.627,3.378,4.399,3.378
		C223.382,287.324,224.977,287.172,227.006,283.948z"/>
	<path fill="#8B8B8B" d="M234.738,296.329c0,0,0-0.977,0-1.207c0.001-3.099-0.774-5.379-2.302-6.775
		c-1.338-1.224-2.874-1.407-3.67-1.407c-0.342,0-0.569,0.033-0.632,0.042c-0.294,0.048-0.562,0.199-0.755,0.425
		c-0.662,0.778-2.821,3.013-4.833,3.012c-2.034,0-4.456-2.275-5.216-3.068c-0.187-0.196-0.432-0.326-0.699-0.371
		c-0.061-0.011-0.287-0.044-0.624-0.044c-0.78,0-2.281,0.184-3.588,1.421c-1.475,1.395-2.223,3.67-2.223,6.759
		c0,0.229,0,1.207,0,1.207L234.738,296.329z"/>
</g>
<g>
	<path fill="#8B8B8B" d="M300.337,292.895h-14.457c-0.816,0-1.48-0.664-1.48-1.48v-17.095c0-0.815,0.664-1.479,1.48-1.479h14.457
		c0.816,0,1.48,0.664,1.48,1.479v17.095C301.817,292.23,301.153,292.895,300.337,292.895z M286.901,290.395h12.417V275.34h-12.417
		V290.395z"/>
</g>
<g>
	<path fill="#8B8B8B" d="M304.633,296.902h-14.544c-0.69,0-1.25-0.56-1.25-1.25s0.56-1.25,1.25-1.25h13.437v-16.075
		c0-0.69,0.56-1.25,1.25-1.25s1.25,0.56,1.25,1.25v17.183C306.026,296.277,305.401,296.902,304.633,296.902z"/>
</g>
<g>
	<path fill="#8B8B8B" d="M336.245,296.896h-14.97c-0.816,0-1.48-0.664-1.48-1.479V275.43c0-0.816,0.664-1.48,1.48-1.48h14.97
		c0.816,0,1.48,0.664,1.48,1.48v4.488c0,0.69-0.56,1.25-1.25,1.25s-1.25-0.56-1.25-1.25v-3.469h-12.93v17.947h12.93v-3.322
		c0-0.69,0.56-1.25,1.25-1.25s1.25,0.56,1.25,1.25v4.343C337.725,296.232,337.061,296.896,336.245,296.896z"/>
</g>
<g>
	<path fill="#8B8B8B" d="M342.374,286.564l-2.285,2.25c-0.21,0.21-0.315,0.486-0.315,0.761c0,0.275,0.105,0.551,0.315,0.761
		c0.421,0.421,1.102,0.421,1.522,0l4.148-4.113c0.421-0.421,0.421-1.102,0-1.522l-4.164-4.192c-0.421-0.421-1.102-0.421-1.522,0
		c-0.42,0.421-0.421,1.102,0,1.522l2.301,2.33l-12.299-0.039c-0.608,0-1.102,0.493-1.102,1.101l0,0c0,0.608,0.493,1.101,1.101,1.101
		L342.374,286.564z"/>
</g>
<path fill="#8B8B8B" d="M268.209,276.911v1.689h-18.774v-1.689c0-1.19,1.873-1.759,2.951-1.759h2.967l0-1.32
	c0-1.509,1.223-2.731,2.732-2.731h1.432c1.509,0,2.732,1.224,2.732,2.733l0,1.319h3.009
	C266.336,275.151,268.209,275.72,268.209,276.911z M260.728,273.371h-3.812v1.75h3.812V273.371z"/>
<path fill="#8B8B8B" d="M265.291,296.642h-12.938l-1.365-16.292h15.667L265.291,296.642z M259.572,293.402v-9.438
	c0-0.414-0.336-0.75-0.75-0.75s-0.75,0.336-0.75,0.75v9.438c0,0.414,0.336,0.75,0.75,0.75S259.572,293.816,259.572,293.402z
	 M263.429,293.449l0.815-9.402c0.036-0.413-0.27-0.776-0.682-0.812c-0.413-0.036-0.776,0.27-0.812,0.682l-0.815,9.402
	c-0.036,0.413,0.27,0.776,0.682,0.812S263.393,293.862,263.429,293.449z M255.042,294.132c0.413-0.036,0.718-0.399,0.682-0.812
	l-0.815-9.402c-0.036-0.413-0.399-0.718-0.812-0.682c-0.413,0.036-0.718,0.399-0.682,0.812l0.815,9.402
	C254.266,293.862,254.63,294.167,255.042,294.132z"/>
</svg>
