<?xml version="1.0" encoding="utf-8"?>
<!-- Generator: Adobe Illustrator 18.1.1, SVG Export Plug-In . SVG Version: 6.00 Build 0)  -->
<svg version="1.1" id="Layer_1" xmlns="http://www.w3.org/2000/svg" xmlns:xlink="http://www.w3.org/1999/xlink" x="0px" y="0px"
	 width="680.444px" height="442.741px" viewBox="-299 1279.259 680.444 442.741"
	 enable-background="new -299 1279.259 680.444 442.741" xml:space="preserve">
<g>
	
		<line fill="none" stroke="#FA8669" stroke-width="0.5" stroke-miterlimit="10" x1="-223.758" y1="1329.377" x2="-241.505" y2="1347.124"/>
	
		<line fill="none" stroke="#FA8669" stroke-width="0.5" stroke-miterlimit="10" x1="-241.64" y1="1329.377" x2="-223.825" y2="1347.192"/>
</g>
<g>
	<g>
		<path fill="#FA8669" d="M-274.485,1309.724l-3.592-4.715c-0.198-0.26-0.198-0.621,0-0.882l3.592-4.716
			c0.243-0.32,0.7-0.381,1.02-0.138l0.574,0.437c0.32,0.243,0.381,0.7,0.138,1.02l-2.923,3.837l2.923,3.837
			c0.243,0.32,0.182,0.776-0.138,1.02l-0.574,0.437C-273.785,1310.105-274.242,1310.044-274.485,1309.724z"/>
	</g>
	<g>
		<path fill="#FA8669" d="M-268.85,1309.857l-0.581-0.429c-0.323-0.239-0.392-0.694-0.153-1.017l2.837-3.844l-2.837-3.844
			c-0.239-0.323-0.17-0.779,0.153-1.017l0.581-0.429c0.323-0.239,0.779-0.17,1.017,0.153l3.472,4.704
			c0.189,0.257,0.189,0.607,0,0.864l-3.472,4.704C-268.072,1310.027-268.527,1310.096-268.85,1309.857z"/>
	</g>
</g>
<g>
	<g>
		<path fill="#FA8669" d="M-243.407,1309.994h-10.599c-0.368,0-0.667-0.298-0.667-0.667v-4.906c0-0.368,0.298-0.667,0.667-0.667
			h0.404c0.368,0,0.667,0.298,0.667,0.667v3.17c0,0.368,0.298,0.667,0.667,0.667h7.125c0.368,0,0.667-0.298,0.667-0.667v-3.17
			c0-0.368,0.298-0.667,0.667-0.667h0.404c0.368,0,0.667,0.298,0.667,0.667v4.906
			C-242.741,1309.696-243.039,1309.994-243.407,1309.994z"/>
	</g>
	<path fill="#FA8669" d="M-247.714,1305.422c0,0.354-0.287,0.64-0.64,0.64h-0.705c-0.354,0-0.64-0.287-0.64-0.64v-3.978l-3.87-0.016
		l4.892-4.02l4.771,4.036h-3.809L-247.714,1305.422L-247.714,1305.422z"/>
</g>
<g>
	<g>
		<path fill="#FA8669" d="M-221.909,1310.536h-9.763c-0.383,0-0.693-0.31-0.693-0.693v-9.401c0-0.383,0.31-0.693,0.693-0.693h3.208
			c0.383,0,0.693,0.31,0.693,0.693v0.403c0,0.383-0.31,0.693-0.693,0.693h-2.111v7.208h7.571v-2.28c0-0.383,0.31-0.693,0.693-0.693
			h0.403c0.383,0,0.693,0.31,0.693,0.693v3.377C-221.216,1310.226-221.526,1310.536-221.909,1310.536z"/>
	</g>
	<path fill="#FA8669" d="M-223.699,1300.654l-2.15-2.055h5.627l0.012,5.39l-2.2-2.103l-3.969,4.051
		c-0.265,0.27-0.699,0.274-0.97,0.009l-0.298-0.293c-0.27-0.265-0.274-0.699-0.009-0.97L-223.699,1300.654z"/>
</g>
<g>
	<polygon fill="#FA8669" points="-181.199,1305.21 -181.199,1310.21 -183.199,1310.21 -183.199,1305.21 -188.199,1305.21 
		-188.199,1303.21 -183.199,1303.21 -183.199,1298.21 -181.199,1298.21 -181.199,1303.21 -176.199,1303.21 -176.199,1305.21 	"/>
</g>
<g>
	<path fill="#FA8669" d="M-157.936,1304.913c-0.026,0.325-0.082,0.64-0.166,0.945l0.864,1.212c-0.169,0.395-0.379,0.768-0.623,1.115
		l-1.505-0.144c-0.224,0.227-0.469,0.432-0.732,0.614l-0.122,1.549c-0.366,0.179-0.751,0.323-1.153,0.428l-1.096-1.115
		c-0.157,0.015-0.316,0.023-0.477,0.023s-0.32-0.008-0.477-0.023l-1.096,1.115c-0.402-0.105-0.787-0.249-1.153-0.428l-0.122-1.549
		c-0.263-0.181-0.508-0.387-0.732-0.614l-1.505,0.144c-0.244-0.347-0.453-0.72-0.623-1.115l0.864-1.212
		c-0.084-0.304-0.141-0.62-0.166-0.945l-1.175-0.808c0.038-0.457,0.124-0.9,0.255-1.323l1.354-0.35
		c0.134-0.295,0.296-0.574,0.482-0.835l-0.359-1.295c0.328-0.337,0.693-0.637,1.09-0.894l1.193,0.569
		c0.29-0.139,0.595-0.251,0.912-0.333l0.54-1.184c0.235-0.027,0.474-0.042,0.717-0.042s0.481,0.015,0.717,0.042l0.54,1.184
		c0.317,0.082,0.622,0.194,0.912,0.333l1.193-0.569c0.397,0.256,0.763,0.556,1.09,0.894l-0.359,1.295
		c0.186,0.261,0.348,0.54,0.482,0.835l1.354,0.35c0.131,0.423,0.217,0.866,0.255,1.323L-157.936,1304.913z M-165.937,1304.524
		c0,1.652,1.339,2.991,2.991,2.991s2.991-1.339,2.991-2.991s-1.339-2.991-2.991-2.991S-165.937,1302.872-165.937,1304.524z"/>
</g>
<g>
	<polygon fill="#FA8669" points="-255.984,1333.713 -255.984,1352.483 -277.963,1352.483 -277.963,1324.654 -265.998,1324.654 
		-265.998,1333.69 	"/>
	<polygon fill="#FA8669" points="-264.016,1324.654 -264.016,1331.708 -255.984,1331.708 	"/>
</g>
<g>
	<path fill="#FA8669" d="M-210.269,1311.751v-10.567c0-0.12,0.053-0.234,0.145-0.312l5.925-4.984
		c0.205-0.172,0.503-0.173,0.708-0.001l5.961,4.985c0.092,0.077,0.146,0.192,0.146,0.313v10.566h-4.507v-4.855h-4.001v4.855
		H-210.269z"/>
</g>
<g>
	<rect x="-133.68" y="1300.276" fill="#FA8669" width="3.963" height="3.963"/>
	<rect x="-127.664" y="1300.276" fill="#FA8669" width="3.963" height="3.963"/>
	<rect x="-133.68" y="1306.292" fill="#FA8669" width="3.963" height="3.963"/>
	<rect x="-127.664" y="1306.292" fill="#FA8669" width="3.963" height="3.963"/>
</g>
<g>
	<polygon fill="#FA8669" points="-142.594,1309.21 -147.052,1303.32 -151.51,1309.21 	"/>
</g>
<g>
	<g id="fEmpNQ.tif_1_">
		<g>
			<path fill="#FA8669" d="M-105.059,1310.759c-2.779,0-5.506,0-8.279,0c-0.33-3.064-0.66-5.072-0.992-8.152
				c3.417,0,6.816,0,10.26,0C-104.399,1305.671-104.728,1307.677-105.059,1310.759z"/>
		</g>
	</g>
	<path fill="#FA8669" d="M-104.068,1299.211c0,0,0,1.369,0,1.902c-3.42,0-6.841,0-10.261,0c0-0.533,0-1.902,0-1.902h4.002v-0.922
		h2.256v0.922H-104.068z"/>
</g>
<g>
	<g>
		<path fill="#FA8669" d="M-233.407,1465.127c-24.376,0-44.208-19.832-44.208-44.208s19.831-44.209,44.208-44.209
			s44.208,19.832,44.208,44.208S-209.031,1465.127-233.407,1465.127z M-233.407,1379.71c-22.722,0-41.208,18.486-41.208,41.208
			s18.486,41.208,41.208,41.208c22.723,0,41.208-18.486,41.208-41.208S-210.685,1379.71-233.407,1379.71z"/>
	</g>
	<rect x="-236.24" y="1410.335" fill="#FA8669" width="5.014" height="28.75"/>
	<circle fill="#FA8669" cx="-233.733" cy="1398.929" r="3.531"/>
</g>
<g>
	<path fill="#FA8669" d="M-106.102,1383.21v73.833h-55.5v-70.833h34.4l0.006-3h-41.573v76.833h65.667v-76.833H-106.102z"/>
	<rect x="-153.199" y="1389.21" fill="#FA8669" width="23" height="3"/>
	<rect x="-153.199" y="1415.21" fill="#FA8669" width="43" height="3"/>
	<rect x="-153.199" y="1424.21" fill="#FA8669" width="43" height="3"/>
	<rect x="-120.199" y="1449.21" fill="#FA8669" width="10" height="3"/>
	<path fill="#FA8669" d="M-125.199,1383.21v-3h17v26.762l-8.5-7.286l-8.5,7.286v-20.762 M-116.699,1395.734l5.5,4.714v-17.238h-11v3
		v14.238L-116.699,1395.734z"/>
</g>
<g>
	<g>
		<path fill="#FA8669" d="M-13.866,1459.215c-0.252,0-0.394-0.005-0.394-0.005h-23.939l-0.569-0.112l-19.5-8l-0.931-1.388v-30
			l1.5-1.5h5.644c2.457-4.157,10.22-17.239,11.672-19.006c0.512-1.175,0.258-7.349-0.307-12.454l0.194-0.919
			c0.59-1.016,2.376-2.733,5.326-2.733c2.241,0,4.765,0.978,7.501,2.906c3.523,2.483,4.769,8.063,3.702,16.587
			c-0.489,3.905-1.348,7.504-1.913,9.619h17.514c0.643,0.023,5.838,0.305,8.121,3.211c0.934,1.188,1.256,2.659,0.932,4.255
			c-0.407,2.005-1.76,3.362-3.284,4.274c0.51,0.296,0.999,0.661,1.441,1.111c1.282,1.306,1.912,3.054,1.872,5.196
			c-0.046,2.513-1.756,4.161-4.108,5.151c1.747,1.074,3.026,2.726,3.026,5.181c0,3.315-2.529,5.239-5.476,6.273
			c1.428,1.132,2.476,2.843,2.476,5.359C-3.366,1457.378-8.79,1459.215-13.866,1459.215z M-37.903,1456.21h23.704
			c0.072,0.002,0.169,0.005,0.333,0.005c1.252,0,7.5-0.192,7.5-3.993c0-4.196-4.934-4.321-5.496-4.321l-0.034-3
			c0.085-0.002,8.53-0.292,8.53-4.311c0-3.856-6.686-3.951-6.971-3.953l-0.028-1.5l0.003-0.416l-0.014-1.084
			c2.269-0.001,8.041-0.621,8.093-3.434c0.024-1.326-0.307-2.32-1.014-3.04c-1.267-1.29-3.459-1.43-4.342-1.43
			c-0.249,0-0.407,0.011-0.434,0.013l-0.289-2.985c0.052-0.006,5.501-0.697,6.107-3.683c0.15-0.736,0.038-1.309-0.351-1.803
			c-1.218-1.551-4.697-2.065-5.82-2.065h-19.442l-1.432-1.946c1.757-5.642,5.165-21.097-0.099-24.807
			c-2.221-1.565-4.163-2.359-5.773-2.359c-1.324,0-2.104,0.562-2.472,0.931c0.861,8.061,0.714,12.802-0.436,14.096
			c-0.902,1.015-7.734,12.406-11.829,19.348l-1.29,0.737h-5v27.494L-37.903,1456.21z"/>
	</g>
	<g>
		<path fill="#FA8669" d="M-65.699,1458.21h-10.25l-1.474-1.224l-8.25-44l1.474-1.776h18.5l1.5,1.5v44L-65.699,1458.21z
			 M-74.704,1455.21h7.505v-41h-15.192L-74.704,1455.21z"/>
	</g>
</g>
<g>
	<path fill="#FA8669" d="M-86.782,1308.877c-0.133,0-0.26-0.053-0.354-0.146l-6.151-6.151c-0.195-0.195-0.195-0.512,0-0.707
		c0.195-0.195,0.512-0.195,0.707,0l5.797,5.798l5.756-5.756c0.195-0.195,0.512-0.195,0.707,0s0.195,0.512,0,0.707l-6.109,6.109
		C-86.523,1308.824-86.65,1308.877-86.782,1308.877z"/>
</g>
<g>
	<path fill="#FA8669" d="M-256.333,1509.118c0,6.002-4.866,10.868-10.868,10.868s-10.868-4.866-10.868-10.868
		c0-6.002,4.866-10.868,10.868-10.868S-256.333,1503.116-256.333,1509.118z M-260.928,1505.771l-1.946-1.06l-6.374,6.374
		l-2.339-2.339l-1.469,1.469l3.808,3.846L-260.928,1505.771z"/>
</g>
<g>
	<path fill="#FA8669" d="M-233.2,1499.25c5.441,0,9.868,4.427,9.868,9.867c0,5.441-4.427,9.868-9.868,9.868
		s-9.868-4.427-9.868-9.868C-243.068,1503.677-238.641,1499.25-233.2,1499.25 M-233.2,1498.25c-6.002,0-10.868,4.865-10.868,10.867
		s4.866,10.868,10.868,10.868s10.868-4.866,10.868-10.868S-227.198,1498.25-233.2,1498.25L-233.2,1498.25z"/>
</g>
<g>
	<path fill="#FA8669" d="M-123.978,1567.214l-3.739-6.545c-0.512,0.178-1.061,0.275-1.633,0.275c-0.628,0-1.229-0.117-1.783-0.33
		l-3.973,7.096l-1.649-1.373l3.812-6.928c-0.86-0.896-1.39-2.112-1.39-3.449c0-2.748,2.236-4.983,4.983-4.983
		s4.983,2.235,4.983,4.983c0,1.399-0.579,2.665-1.511,3.571l3.663,6.405L-123.978,1567.214z M-129.349,1553.143
		c-1.553,0-2.817,1.264-2.817,2.817s1.264,2.817,2.817,2.817s2.817-1.264,2.817-2.817S-127.796,1553.143-129.349,1553.143z"/>
	<path fill="#FA8669" d="M-122.308,1565.939c0.628-0.286,1.325-0.446,2.059-0.446c2.748,0,4.983,2.235,4.983,4.983
		s-2.236,4.983-4.983,4.983c-1.972,0-3.681-1.152-4.488-2.818c-0.317-0.655-0.495-1.39-0.495-2.165c0-1.211,0.434-2.323,1.155-3.187
		L-122.308,1565.939z M-120.249,1567.66c-1.553,0-2.817,1.264-2.817,2.817s1.264,2.817,2.817,2.817s2.817-1.264,2.817-2.817
		S-118.696,1567.66-120.249,1567.66z"/>
	<polygon fill="#FA8669" points="-124.737,1572.509 -134.825,1572.435 -134.332,1570.21 -125.232,1570.21 	"/>
	<path fill="#FA8669" d="M-135.34,1567.476c0.632,0.835,1.007,1.875,1.007,3.001c0,0.773-0.177,1.505-0.492,2.159
		c-0.806,1.67-2.516,2.825-4.491,2.825c-2.748,0-4.983-2.235-4.983-4.983s2.236-4.983,4.983-4.983c0.818,0,1.591,0.198,2.273,0.549
		L-135.34,1567.476z M-139.316,1567.66c-1.553,0-2.817,1.264-2.817,2.817s1.264,2.817,2.817,2.817s2.817-1.264,2.817-2.817
		S-137.763,1567.66-139.316,1567.66z"/>
</g>
<g>
	<g>
		<path fill="#FA8669" d="M-164.199,1572.21h-6v-3h5.724c0.657-0.273,2.776-1.306,2.776-3.25c0-3.333-2.356-3.93-2.625-3.987
			c-0.408-0.086-0.771-0.341-0.985-0.699s-0.28-0.791-0.164-1.191c0.047-0.169,1.167-4.31-2.13-6.17
			c-3.899-2.202-7.073,1.438-7.205,1.594c-0.377,0.44-0.955,0.707-1.513,0.556c-0.56-0.151-0.962-0.53-1.065-1.101
			c-0.106-0.229-0.657-0.501-1.782-0.283c-1.295,0.251-1.717,2.261-1.721,2.281c-0.103,0.568-0.523,1.026-1.08,1.178
			c-0.244,0.068-6.063,1.75-6.063,6.507c0,3.806,3.222,4.478,3.77,4.564h5.063v3h-5.167c-0.059,0-0.118-0.003-0.177-0.01
			c-2.245-0.267-6.49-2.188-6.49-7.554c0-5.773,5.311-8.331,7.427-9.121c0.503-1.488,1.683-3.368,3.865-3.792
			c1.791-0.347,3.062,0.028,3.908,0.624c2.149-1.714,5.807-3.258,9.705-1.058c3.56,2.008,4.101,5.726,3.809,8.233
			c1.691,0.861,3.621,2.805,3.621,6.427c0,4.473-4.827,6.108-5.032,6.175C-163.882,1572.185-164.04,1572.21-164.199,1572.21z"/>
	</g>
	<g>
		<path fill="#FA8669" d="M-173.472,1563.362l2.25,2.285c0.21,0.21,0.486,0.315,0.761,0.315s0.551-0.105,0.761-0.315
			c0.421-0.421,0.421-1.102,0-1.522l-4.113-4.148c-0.421-0.421-1.102-0.421-1.522,0l-4.192,4.164c-0.421,0.421-0.421,1.102,0,1.522
			c0.421,0.42,1.102,0.421,1.522,0l2.33-2.301l-0.039,11.299c0,0.608,0.493,1.102,1.101,1.102l0,0c0.608,0,1.101-0.493,1.101-1.101
			L-173.472,1563.362z"/>
	</g>
</g>
<g>
	<path fill="#FA8669" d="M-255.862,1564.04v5.999h-17.928v-6.1l-2.558,0.004v7.499c0,0.638,0.518,1.156,1.156,1.156h20.731
		c0.638,0,1.156-0.518,1.156-1.156v-7.412L-255.862,1564.04z"/>
	<path fill="#FA8669" d="M-265.968,1563.866l-2.25-2.285c-0.21-0.21-0.486-0.315-0.761-0.315s-0.551,0.105-0.761,0.315
		c-0.421,0.421-0.421,1.102,0,1.522l4.113,4.148c0.421,0.421,1.102,0.421,1.522,0l4.192-4.164c0.421-0.421,0.421-1.102,0-1.522
		c-0.421-0.42-1.102-0.421-1.522,0l-2.33,2.301l0.039-11.299c0-0.608-0.493-1.102-1.101-1.102l0,0c-0.608,0-1.101,0.493-1.101,1.102
		L-265.968,1563.866z"/>
</g>
<g>
	<g>
		<path fill="#FA8669" d="M-208.871,1552.702v23.215c0,0.982-0.796,1.779-1.779,1.779h-26.351c-0.983,0-1.779-0.797-1.779-1.779
			v-23.214c0-0.525,0.425-0.95,0.95-0.95h28.009C-209.296,1551.752-208.871,1552.177-208.871,1552.702z M-236.668,1575.335
			l25.47-0.031l0.041-18.042h-25.51L-236.668,1575.335L-236.668,1575.335z"/>
	</g>
	<g>
		<g>
			<path fill="#FA8669" d="M-227.994,1569.726c-0.186,0-0.371-0.071-0.513-0.213l-2.257-2.257c-0.283-0.283-0.283-0.743,0-1.026
				l2.253-2.253c0.283-0.283,0.742-0.283,1.026,0c0.283,0.283,0.283,0.742,0,1.026l-1.74,1.741l1.744,1.744
				c0.283,0.283,0.283,0.742,0,1.025C-227.623,1569.655-227.809,1569.726-227.994,1569.726z"/>
		</g>
		<g>
			<path fill="#FA8669" d="M-219.653,1569.726c-0.186,0-0.372-0.071-0.513-0.213c-0.283-0.283-0.283-0.742,0-1.025l1.741-1.741
				l-1.745-1.744c-0.283-0.283-0.283-0.742,0-1.026c0.283-0.283,0.743-0.283,1.026,0l2.257,2.257
				c0.136,0.136,0.213,0.32,0.213,0.513c0,0.192-0.077,0.377-0.213,0.513l-2.254,2.254
				C-219.282,1569.655-219.468,1569.726-219.653,1569.726z"/>
		</g>
		<g>
			<path fill="#FA8669" d="M-224.865,1571.402c-0.059,0-0.12-0.007-0.18-0.022c-0.388-0.099-0.622-0.494-0.523-0.882l1.843-7.222
				c0.099-0.388,0.496-0.622,0.882-0.524c0.389,0.099,0.623,0.494,0.524,0.882l-1.844,7.222
				C-224.246,1571.184-224.541,1571.402-224.865,1571.402z"/>
		</g>
	</g>
</g>
<g>
	<path fill="#FA8669" d="M-242.601,1620.111c-0.002,9.606-7.791,17.392-17.397,17.389c-9.606-0.003-17.392-7.791-17.389-17.397
		c0.002-9.606,7.791-17.392,17.397-17.389C-250.384,1602.716-242.598,1610.505-242.601,1620.111z M-255.414,1618.493
		c0.527-0.837,2.245-3.761,2.246-6.23c0.001-3.763-3.06-6.825-6.823-6.826c-3.763-0.001-6.825,3.06-6.826,6.823
		c-0.001,2.468,1.717,5.393,2.243,6.231c2.111,3.36,3.775,3.862,4.579,3.862C-259.191,1622.353-257.527,1621.851-255.414,1618.493z
		 M-247.487,1630.308c0.124-0.204,0.189-0.438,0.189-0.677c0.001-3.228-0.806-5.602-2.398-7.057
		c-1.394-1.275-2.993-1.465-3.822-1.465c-0.356,0-0.593,0.034-0.658,0.044c-0.306,0.05-0.585,0.207-0.786,0.443
		c-0.69,0.81-2.938,2.913-5.034,2.912c-2.118,0-4.641-2.145-5.433-2.971c-0.195-0.204-0.45-0.34-0.728-0.386
		c-0.064-0.011-0.299-0.046-0.65-0.046c-0.812,0-2.376,0.192-3.737,1.48c-1.536,1.453-2.315,3.822-2.315,7.04
		c0,0.239,0.065,0.473,0.189,0.677c0.172,0.284,4.299,5.957,12.59,5.958C-251.789,1636.261-247.658,1630.591-247.487,1630.308z"/>
</g>
<path fill="#FA8669" d="M-189.157,1619.322c-0.002,9.606-7.791,17.392-17.397,17.389c-9.606-0.003-17.392-7.791-17.389-17.397
	s7.791-17.392,17.397-17.389C-196.941,1601.928-189.155,1609.716-189.157,1619.322z"/>
<path fill="#FFFFFF" d="M-205.261,1617.002l-0.003,12.145l-2.385-0.001l0.003-12.991L-205.261,1617.002z"/>
<path fill="#FFFFFF" d="M-214.412,1615.929c-0.094-3.17,1.579-4.786,3.756-4.785c1.325,0,2.335,0.413,4.481,1.427
	c1.578,0.761,2.745,1.332,3.913,1.332c1.136,0,1.673-0.919,1.705-2.662h1.862c0.157,3.518-1.642,4.786-3.599,4.785
	c-1.262,0-2.399-0.381-4.575-1.396c-1.483-0.73-2.651-1.395-3.787-1.395s-1.83,0.792-1.862,2.693L-214.412,1615.929z"/>
<g>
	<path fill="#FA8669" d="M-74.145,1561.158c0.506-0.804,2.155-3.611,2.156-5.981c0.001-3.613-2.938-6.553-6.551-6.554
		c-3.613-0.001-6.553,2.938-6.554,6.551c-0.001,2.37,1.649,5.178,2.154,5.982c2.027,3.226,3.627,3.378,4.399,3.378
		C-77.769,1564.533-76.173,1564.382-74.145,1561.158z"/>
	<path fill="#FA8669" d="M-66.412,1573.538c0,0,0-0.977,0-1.207c0.001-3.099-0.774-5.379-2.302-6.776
		c-1.338-1.224-2.874-1.406-3.67-1.406c-0.342,0-0.569,0.033-0.632,0.042c-0.294,0.048-0.562,0.199-0.755,0.425
		c-0.662,0.778-2.821,3.012-4.833,3.012c-2.034,0-4.456-2.275-5.216-3.068c-0.187-0.196-0.432-0.326-0.699-0.371
		c-0.061-0.01-0.287-0.044-0.624-0.044c-0.78,0-2.281,0.184-3.588,1.421c-1.475,1.395-2.223,3.67-2.223,6.759
		c0,0.229,0,1.207,0,1.207L-66.412,1573.538z"/>
</g>
<g>
	<path fill="#FA8669" d="M-0.814,1570.104H-15.27c-0.816,0-1.48-0.664-1.48-1.48v-17.095c0-0.815,0.664-1.479,1.48-1.479h14.457
		c0.816,0,1.48,0.664,1.48,1.479v17.095C0.666,1569.44,0.002,1570.104-0.814,1570.104z M-14.25,1567.604h12.417v-15.055H-14.25
		V1567.604z"/>
</g>
<g>
	<path fill="#FA8669" d="M3.482,1574.112h-14.544c-0.69,0-1.25-0.56-1.25-1.25s0.56-1.25,1.25-1.25H2.375v-16.075
		c0-0.69,0.56-1.25,1.25-1.25s1.25,0.56,1.25,1.25v17.183C4.875,1573.487,4.25,1574.112,3.482,1574.112z"/>
</g>
<g>
	<path fill="#FA8669" d="M35.094,1574.107H20.125c-0.816,0-1.48-0.664-1.48-1.48v-19.987c0-0.816,0.664-1.48,1.48-1.48h14.969
		c0.816,0,1.48,0.664,1.48,1.48v4.488c0,0.69-0.56,1.25-1.25,1.25s-1.25-0.56-1.25-1.25v-3.469h-12.93v17.948h12.93v-3.323
		c0-0.69,0.56-1.25,1.25-1.25s1.25,0.56,1.25,1.25v4.343C36.574,1573.443,35.91,1574.107,35.094,1574.107z"/>
</g>
<g>
	<path fill="#FA8669" d="M41.223,1563.774l-2.285,2.25c-0.21,0.21-0.315,0.486-0.315,0.761s0.105,0.551,0.315,0.761
		c0.421,0.421,1.102,0.421,1.522,0l4.148-4.113c0.421-0.421,0.421-1.102,0-1.522l-4.164-4.192c-0.421-0.421-1.102-0.421-1.522,0
		c-0.42,0.421-0.421,1.102,0,1.522l2.301,2.33l-12.299-0.04c-0.608,0-1.102,0.493-1.102,1.101l0,0c0,0.608,0.493,1.101,1.101,1.101
		L41.223,1563.774z"/>
</g>
<path fill="#FA8669" d="M-32.942,1554.12v1.689h-18.774v-1.689c0-1.19,1.873-1.759,2.951-1.759h2.967l0-1.32
	c0-1.509,1.223-2.731,2.732-2.731h1.432c1.509,0,2.732,1.224,2.732,2.733l0,1.319h3.009
	C-34.815,1552.361-32.942,1552.93-32.942,1554.12z M-40.422,1550.58h-3.812v1.75h3.812V1550.58z"/>
<path fill="#FA8669" d="M-35.86,1573.851h-12.938l-1.365-16.292h15.667L-35.86,1573.851z M-41.579,1570.611v-9.438
	c0-0.414-0.336-0.75-0.75-0.75s-0.75,0.336-0.75,0.75v9.438c0,0.414,0.336,0.75,0.75,0.75S-41.579,1571.026-41.579,1570.611z
	 M-37.722,1570.659l0.815-9.402c0.036-0.412-0.27-0.776-0.682-0.812c-0.413-0.036-0.776,0.27-0.812,0.682l-0.815,9.402
	c-0.036,0.412,0.27,0.776,0.682,0.812C-38.122,1571.377-37.758,1571.071-37.722,1570.659z M-46.109,1571.341
	c0.413-0.036,0.718-0.399,0.682-0.812l-0.815-9.402c-0.036-0.413-0.399-0.718-0.812-0.682c-0.413,0.036-0.718,0.4-0.682,0.812
	l0.815,9.402C-46.885,1571.071-46.521,1571.377-46.109,1571.341z"/>
</svg>
