<?xml version="1.0" encoding="UTF-8" standalone="no"?>
<svg width="587px" height="514px" viewBox="0 0 587 514" version="1.1" xmlns="http://www.w3.org/2000/svg" xmlns:xlink="http://www.w3.org/1999/xlink" xmlns:sketch="http://www.bohemiancoding.com/sketch/ns">
    <!-- Generator: Sketch 3.3.2 (12043) - http://www.bohemiancoding.com/sketch -->
    <title>Group</title>
    <desc>Created with Sketch.</desc>
    <defs></defs>
    <g id="Page-1" stroke="none" stroke-width="1" fill="none" fill-rule="evenodd" sketch:type="MSPage">
        <g id="Bages" sketch:type="MSArtboardGroup" transform="translate(-307.000000, -2070.000000)" stroke="#9A4A79" stroke-width="5">
            <g id="Group" sketch:type="MSLayerGroup" transform="translate(309.000000, 2072.000000)">
                <ellipse id="Oval-1-Copy-2" sketch:type="MSShapeGroup" cx="524.068423" cy="245.699321" rx="58.1421058" ry="58.1421058"></ellipse>
                <ellipse id="Oval-1" sketch:type="MSShapeGroup" cx="58.9315768" cy="244.868719" rx="58.1421058" ry="58.1421058"></ellipse>
                <g id="Path-17-+-Rectangle-14" transform="translate(135.346916, 230.748494)" sketch:type="MSShapeGroup">
                    <path d="M0.596994836,15.366128 L79.3224443,15.366128" id="Path-17"></path>
                    <path d="M75.5847375,4.98360907 L75.5847375,25.7486469 L54.8196998,25.7486469" id="Rectangle-14" transform="translate(65.202219, 15.366128) rotate(-45.000000) translate(-65.202219, -15.366128) "></path>
                </g>
                <g id="Path-17-+-Rectangle-14-Copy" transform="translate(367.915339, 230.748494)" sketch:type="MSShapeGroup">
                    <path d="M0.596994836,15.366128 L79.3224443,15.366128" id="Path-17"></path>
                    <path d="M75.5847375,4.98360907 L75.5847375,25.7486469 L54.8196998,25.7486469" id="Rectangle-14" transform="translate(65.202219, 15.366128) rotate(-45.000000) translate(-65.202219, -15.366128) "></path>
                </g>
                <g id="Path-17-Copy-+-Rectangle-14-+-Path-17-+-Rectangle-14-Copy-2" transform="translate(114.581878, 43.863154)" sketch:type="MSShapeGroup">
                    <path d="M-28.531201,72.4818268 L174.598003,72.4818268" id="Path-17-Copy" transform="translate(73.217484, 72.897128) rotate(-45.000000) translate(-73.217484, -72.897128) "></path>
                    <path d="M144.524663,0.830601511 L144.524663,21.5956393 L123.759625,21.5956393" id="Rectangle-14" transform="translate(134.142144, 11.213120) rotate(-90.000000) translate(-134.142144, -11.213120) "></path>
                    <g id="Path-17-+-Rectangle-14-Copy-2" transform="translate(281.336244, 73.330602) rotate(90.000000) translate(-281.336244, -73.330602) translate(208.836244, 0.830602)">
                        <path d="M-27.9623186,72.642239 L171.72782,72.642239" id="Path-17" transform="translate(72.054447, 72.642239) rotate(-45.000000) translate(-72.054447, -72.642239) "></path>
                        <path d="M143.694061,0.830601511 L143.694061,21.5956393 L122.929024,21.5956393" id="Rectangle-14" transform="translate(133.311543, 11.213120) rotate(-90.000000) translate(-133.311543, -11.213120) "></path>
                    </g>
                </g>
                <g id="Path-17-Copy-+-Rectangle-14-+-Path-17-+-Rectangle-14-Copy-2-Copy-Copy" transform="translate(289.090074, 383.672105) scale(1, -1) translate(-289.090074, -383.672105) translate(112.090074, 310.672105)" sketch:type="MSShapeGroup">
                    <path d="M-28.531201,72.4818268 L174.598003,72.4818268" id="Path-17-Copy" transform="translate(73.217484, 72.897128) rotate(-45.000000) translate(-73.217484, -72.897128) "></path>
                    <path d="M144.524663,0.830601511 L144.524663,21.5956393 L123.759625,21.5956393" id="Rectangle-14" transform="translate(134.142144, 11.213120) rotate(-90.000000) translate(-134.142144, -11.213120) "></path>
                    <g id="Path-17-+-Rectangle-14-Copy-2" transform="translate(281.336244, 73.330602) rotate(90.000000) translate(-281.336244, -73.330602) translate(208.836244, 0.830602)">
                        <path d="M-27.9623186,72.642239 L171.72782,72.642239" id="Path-17" transform="translate(72.054447, 72.642239) rotate(-45.000000) translate(-72.054447, -72.642239) "></path>
                        <path d="M143.694061,0.830601511 L143.694061,21.5956393 L122.929024,21.5956393" id="Rectangle-14" transform="translate(133.311543, 11.213120) rotate(-90.000000) translate(-133.311543, -11.213120) "></path>
                    </g>
                </g>
                <ellipse id="Oval-1-Copy" stroke-linecap="round" sketch:type="MSShapeGroup" cx="291.5" cy="245.699321" rx="58.1421058" ry="58.1421058"></ellipse>
                <ellipse id="Oval-165" sketch:type="MSShapeGroup" cx="291.915301" cy="26.0052211" rx="25.3333461" ry="25.3333461"></ellipse>
                <ellipse id="Oval-165-Copy" sketch:type="MSShapeGroup" cx="291.915301" cy="483.666654" rx="25.3333461" ry="25.3333461"></ellipse>
            </g>
        </g>
    </g>
</svg>