<?xml version="1.0" encoding="UTF-8" standalone="no"?>
<svg width="111px" height="97px" viewBox="0 0 111 97" version="1.1" xmlns="http://www.w3.org/2000/svg" xmlns:xlink="http://www.w3.org/1999/xlink" xmlns:sketch="http://www.bohemiancoding.com/sketch/ns">
    <!-- Generator: Sketch 3.5.1 (25234) - http://www.bohemiancoding.com/sketch -->
    <title>Group 50</title>
    <desc>Created with Sketch.</desc>
    <defs></defs>
    <g id="Welcome" stroke="none" stroke-width="1" fill="none" fill-rule="evenodd" sketch:type="MSPage">
        <g id="Group-50" sketch:type="MSLayerGroup">
            <path d="M2.4,49.9 L9.4,40.1 L16.5,50.2" id="Shape" stroke="#7C7B75" stroke-width="0.6308" sketch:type="MSShapeGroup"></path>
            <path d="M108,54 L101,63.9 L93.9,53.8" id="Shape" stroke="#7C7B75" stroke-width="0.6308" sketch:type="MSShapeGroup"></path>
            <path d="M34.4,21.2 L42.6,11.4 L51,21.5 L50.8,21.4 L66.8,2 L83.3,21.8" id="Shape" stroke="#7C7B75" stroke-width="0.6824" sketch:type="MSShapeGroup"></path>
            <path d="M94.3,85.4 L17.5,85.4 C15.8,85.4 14.5,84.1 14.5,82.4 L14.5,23.4 C14.5,21.7 15.8,20.4 17.5,20.4 L94.3,20.4 C96,20.4 97.3,21.7 97.3,23.4 L97.3,82.4 C97.3,84 96,85.4 94.3,85.4 L94.3,85.4 Z" id="Shape" fill="#F4F3F0" sketch:type="MSShapeGroup"></path>
            <path d="M97.3,28.6 L14.5,28.6 L14.5,23.4 C14.5,21.7 15.8,20.4 17.5,20.4 L94.3,20.4 C96,20.4 97.3,21.7 97.3,23.4 L97.3,28.6 L97.3,28.6 Z" id="Shape" fill="#BFBEBE" sketch:type="MSShapeGroup"></path>
            <path d="M14.3,66.1 C15.6,66.2 17.1,66.1 17.1,66.1 C17.4,65.1 17.7,62.4 18.5,61.8 C19.4,61 20.8,61 21.7,60.3 C22.5,59.7 23,58.8 23,57.8 C23,57.6 23,57.4 23.1,57.3 C23.3,57 23.8,57 24.1,57.3 C24.8,57.8 25.1,58.7 25.2,59.5 C25.3,60.2 25.3,60.9 25.2,61.5 C25,62.2 24.6,62.8 24,63.1 L23.8,63.3 C24.8,63.4 25.8,63.3 26.8,63.3 L27.5,63.3 L30.6,63.3 L30.6,63.3 C31.4,63.3 32.1,64 32.1,64.9 C32.1,65.7 31.5,66.5 30.7,66.5 C31,66.8 31.2,67.2 31.2,67.7 C31.2,68.5 30.6,69.2 29.9,69.3 L29.9,69.3 L29.8,69.3 C30.1,69.6 30.3,70 30.3,70.5 C30.3,71.4 29.6,72.1 28.8,72.1 L28.8,72.1 C29.1,72.4 29.3,72.8 29.3,73.3 C29.3,74.2 28.6,74.9 27.8,74.9 L27.5,74.9 L24.1,74.9 L14.3,74.9" id="Shape" fill="#FFFFFF" sketch:type="MSShapeGroup"></path>
            <rect id="Rectangle-path" fill="#FFFFFF" sketch:type="MSShapeGroup" x="20.5" y="35" width="56.1" height="6"></rect>
            <rect id="Rectangle-path" stroke="#7C7B75" stroke-width="0.5" fill="#F58D6F" sketch:type="MSShapeGroup" transform="translate(38.885990, 76.972790) rotate(45.000000) translate(-38.885990, -76.972790) " x="36.7860101" y="68.9728667" width="4.19995972" height="15.9998466"></rect>
            <circle id="Oval" stroke="#7C7B75" stroke-width="0.5" fill="#F0B128" sketch:type="MSShapeGroup" transform="translate(57.986050, 57.541250) rotate(-45.000000) translate(-57.986050, -57.541250) " cx="57.98605" cy="57.54125" r="19.9998082"></circle>
            <circle id="Oval" stroke="#7C7B75" stroke-width="0.5" fill="#3B4672" sketch:type="MSShapeGroup" transform="translate(58.191660, 57.620980) rotate(-38.703653) translate(-58.191660, -57.620980) " cx="58.19166" cy="57.62098" r="11.8001431"></circle>
            <path d="M20.7,95.4 L20.7,95.4 C19,93.7 19,90.9 20.7,89.2 L27.6,82.3 C29.3,80.6 32.1,80.6 33.8,82.3 L33.8,82.3 C35.5,84 35.5,86.8 33.8,88.5 L26.9,95.4 C25.2,97.1 22.4,97.1 20.7,95.4 L20.7,95.4 Z" id="Shape" stroke="#7C7B75" stroke-width="0.2566" fill="#F0B128" sketch:type="MSShapeGroup"></path>
            <path d="M59.6,53.6 L59.6,63.7" id="Shape" stroke="#7C7B75" stroke-width="0.7934" sketch:type="MSShapeGroup"></path>
            <path d="M63,49.9 L63,60" id="Shape" stroke="#7C7B75" stroke-width="0.7934" sketch:type="MSShapeGroup"></path>
            <circle id="Oval" stroke="#7C7B75" stroke-width="0.2645" fill="#3B4672" sketch:type="MSShapeGroup" cx="20" cy="24.5" r="2.7"></circle>
            <circle id="Oval" stroke="#7C7B75" stroke-width="0.2645" fill="#4363AD" sketch:type="MSShapeGroup" cx="27.8" cy="24.5" r="2.7"></circle>
            <circle id="Oval" fill="#ED6A44" sketch:type="MSShapeGroup" cx="42.6" cy="11.4" r="2.1"></circle>
            <circle id="Oval" fill="#ED6A44" sketch:type="MSShapeGroup" cx="67" cy="2.4" r="2.1"></circle>
            <circle id="Oval" fill="#ED6A44" sketch:type="MSShapeGroup" cx="100.9" cy="63.3" r="2.1"></circle>
            <circle id="Oval" fill="#ED6A44" sketch:type="MSShapeGroup" cx="2.4" cy="50" r="2.1"></circle>
            <circle id="Oval" fill="#ED6A44" sketch:type="MSShapeGroup" cx="108.7" cy="53.1" r="2.1"></circle>
            <circle id="Oval" fill="#ED6A44" sketch:type="MSShapeGroup" cx="9.5" cy="40.3" r="2.1"></circle>
            <g id="Group" transform="translate(9.000000, 13.000000)" stroke="#7C7B75" stroke-width="0.3432" sketch:type="MSShapeGroup">
                <path d="M0.2,0.6 L1.7,2.1" id="Shape"></path>
                <path d="M1.7,0.6 L0.2,2.1" id="Shape"></path>
            </g>
            <g id="Group" transform="translate(7.000000, 25.000000)" stroke="#7C7B75" stroke-width="0.3432" sketch:type="MSShapeGroup">
                <path d="M0.4,0.8 L1.9,2.3" id="Shape"></path>
                <path d="M1.8,0.8 L0.3,2.3" id="Shape"></path>
            </g>
            <g id="Group" transform="translate(20.000000, 15.000000)" stroke="#7C7B75" stroke-width="0.3432" sketch:type="MSShapeGroup">
                <path d="M0.6,0.9 L2.1,2.4" id="Shape"></path>
                <path d="M2,0.9 L0.5,2.4" id="Shape"></path>
            </g>
            <g id="Group" transform="translate(86.000000, 89.000000)" stroke="#7C7B75" stroke-width="0.3432" sketch:type="MSShapeGroup">
                <path d="M0.9,0.2 L2.4,1.7" id="Shape"></path>
                <path d="M2.4,0.2 L0.9,1.7" id="Shape"></path>
            </g>
            <g id="Group" transform="translate(101.000000, 74.000000)" stroke="#7C7B75" stroke-width="0.3432" sketch:type="MSShapeGroup">
                <path d="M0.6,0.5 L2.1,2" id="Shape"></path>
                <path d="M2,0.5 L0.5,2" id="Shape"></path>
            </g>
            <path d="M91.6,53.2 L91.6,53.2 C87.8,53.2 84.6,50.1 84.6,46.2 L84.6,45 C84.6,41.2 87.7,38 91.6,38 L91.6,38 C95.4,38 98.6,41.1 98.6,45 L98.6,46.2 C98.6,50.1 95.4,53.2 91.6,53.2 L91.6,53.2 Z" id="Shape" fill="#FFFFFF" sketch:type="MSShapeGroup"></path>
            <circle id="Oval" fill="#FFFFFF" sketch:type="MSShapeGroup" cx="91.7" cy="34.5" r="3.5"></circle>
        </g>
    </g>
</svg>