<?xml version="1.0" encoding="UTF-8" standalone="no"?>
<svg width="101px" height="85px" viewBox="0 0 101 85" version="1.1" xmlns="http://www.w3.org/2000/svg" xmlns:xlink="http://www.w3.org/1999/xlink" xmlns:sketch="http://www.bohemiancoding.com/sketch/ns">
    <!-- Generator: Sketch 3.5.1 (25234) - http://www.bohemiancoding.com/sketch -->
    <title>_x32_</title>
    <desc>Created with Sketch.</desc>
    <defs></defs>
    <g id="Welcome" stroke="none" stroke-width="1" fill="none" fill-rule="evenodd" sketch:type="MSPage">
        <g id="_x32_" sketch:type="MSLayerGroup">
            <g id="Group" sketch:type="MSShapeGroup">
                <g transform="translate(17.000000, 72.000000)" id="Shape" fill="#26436E">
                    <path d="M11.8,12.6 C11.8,12.6 10.1,3.4 11.2,0.6 L1.1,0.6 C0.7,4 1,8.6 1.4,12.3 L11.8,12.6 L11.8,12.6 Z"></path>
                    <path d="M1.6,12.4 C1.8,8.5 1.7,4.6 1.6,0.7 C1.5,0.8 1.4,0.9 1.3,1 L2.5,1 L7.7,1 L10,1 L10.7,1 L10.9,1 L10.9,1 C10.8,0.9 10.8,0.8 10.7,0.7 C10.3,1.6 10,2.4 9.6,3.3 C8.2,6.3 6.8,9.3 5.4,12.2 C5.5,12.2 5.6,12.1 5.6,12.1 C4.8,12.1 4,12.1 3.2,12.2 L1.6,12.2 C1.4,12.2 1.1,12.2 0.9,12.3 C0.6,12.5 0.9,12.9 1.2,12.8 C1,12.9 1.2,12.8 1.4,12.8 L1.9,12.8 L3.4,12.8 C4.1,12.8 4.8,12.8 5.5,12.7 C5.6,12.7 9.5,12.7 9.5,12.6 C9.7,12.2 9.3,10.9 9.5,10.5 C11.1,7 9.6,4.5 11.1,0.9 C11.2,0.8 11,0.6 10.9,0.6 C10.6,0.5 10,0.6 9.6,0.6 C6.7,0.6 3.9,0.6 1,0.7 C0.9,0.7 0.7,0.8 0.7,1 C0.8,4.9 0.9,8.8 0.7,12.7 C1.1,12.7 1.6,12.7 1.6,12.4 L1.6,12.4 Z"></path>
                </g>
                <path d="M17.8,83.6 L9.6,83.6 L6.6,83.6 L6.3,83.6 C5.6,83.6 5,83 5,82.2 C5,81.8 5.2,81.4 5.5,81.1 L5.5,81.1 C4.8,81.1 4.2,80.5 4.2,79.7 C4.2,79.3 4.4,78.9 4.7,78.6 L4.6,78.6 L4.6,78.6 C3.9,78.5 3.4,77.9 3.4,77.2 C3.4,76.8 3.6,76.4 3.9,76.1 C3.2,76.1 2.6,75.4 2.6,74.7 C2.6,73.9 3.2,73.3 3.9,73.3 L3.9,73.3 L6.6,73.3 L7.2,73.3 C8.1,73.3 8.9,73.4 9.8,73.3 L9.6,73.2 C9.1,72.9 8.7,72.4 8.5,71.8 C8.4,71.2 8.4,70.6 8.5,70 C8.6,69.3 8.8,68.5 9.5,68.1 C9.8,67.9 10.2,67.9 10.4,68.1 C10.5,68.2 10.5,68.4 10.5,68.5 C10.5,69.4 10.9,70.2 11.7,70.7 C12.6,71.3 13.7,71.3 14.6,72 C15.3,72.6 15.6,74.9 15.9,75.8 L17.7,75.8" id="Shape" stroke="#6D6E70" stroke-width="0.535" fill="#FFFFFF"></path>
                <path d="M73.9,84.4 L45,84.4 C40.6,84.4 37,80.8 37,76.4 L37,43.6 C37,39.2 40.6,35.6 45,35.6 L73.9,35.6 C78.3,35.6 81.9,39.2 81.9,43.6 L81.9,76.4 C81.9,80.8 78.3,84.4 73.9,84.4 L73.9,84.4 Z" id="Shape" stroke="#6D6E70" stroke-width="0.4161" fill="#E6E7E8"></path>
                <path d="M68,84.6 L32.4,84.6 C31.3,84.6 30.4,83.7 30.4,82.6 L30.4,60 C30.4,58.9 31.3,58 32.4,58 L68,58 C69.1,58 70,58.9 70,60 L70,82.6 C70,83.7 69.1,84.6 68,84.6 L68,84.6 Z" id="Shape" stroke="#7C7B75" stroke-width="0.2225" fill="#F27456"></path>
                <rect id="Rectangle-path" fill="#FFFFFF" x="30.3" y="69.1" width="39.6" height="10.2"></rect>
                <g transform="translate(35.000000, 60.000000)" id="Shape" fill="#E6E7E8">
                    <g transform="translate(0.000000, 1.000000)">
                        <path d="M0.5,0.3 C0.4,1.7 0.5,3.1 0.5,4.5 C0.5,4.8 1,4.8 1,4.5 C0.9,3.1 0.9,1.7 1,0.3 C1,1.77496906e-14 0.5,1.77496906e-14 0.5,0.3 L0.5,0.3 L0.5,0.3 Z"></path>
                        <path d="M0.9,2.5 C1.6,2.6 2.4,2.6 3.2,2.5 C3.3,2.5 3.3,2.4 3.4,2.3 L3.4,2.3 C3.5,2.1 3.3,2 3.2,2 L3.2,2 C2.9,2 2.9,2.5 3.2,2.5 L3.2,2.5 C3.1,2.4 3,2.3 3,2.2 L3,2.2 C3.1,2.1 3.1,2.1 3.2,2 C2.6,2.1 1.7,2.1 1.1,2 C0.6,2 0.6,2.5 0.9,2.5 L0.9,2.5 L0.9,2.5 Z"></path>
                        <path d="M3.2,0.3 L3.2,4.5 C3.2,4.8 3.7,4.8 3.7,4.5 L3.7,0.3 C3.7,1.77496906e-14 3.2,1.77496906e-14 3.2,0.3 L3.2,0.3 L3.2,0.3 Z"></path>
                    </g>
                    <path d="M5.5,1.2 C5.5,2.5 5.6,3.8 5.6,5 C5.6,5.3 6.1,5.3 6,5 C6,3.7 5.9,2.4 5.9,1.2 C6,0.9 5.5,0.9 5.5,1.2 L5.5,1.2 L5.5,1.2 Z"></path>
                    <path d="M5.9,1.5 L7.3,1.5 C7.6,1.5 7.6,1.1 7.3,1.1 C6.8,1 6.4,1.1 5.9,1.1 C5.6,1 5.6,1.5 5.9,1.5 L5.9,1.5 L5.9,1.5 Z"></path>
                    <path d="M6.1,3.6 C6.5,3.6 6.9,3.6 7.3,3.5 C7.6,3.5 7.6,3 7.3,3.1 C6.9,3.1 6.5,3.1 6.1,3.2 C5.8,3.1 5.8,3.6 6.1,3.6 L6.1,3.6 L6.1,3.6 Z"></path>
                    <path d="M5.8,5.5 C6.4,5.4 7,5.5 7.6,5.5 C7.9,5.5 7.9,5.1 7.6,5.1 C7,5.1 6.4,5 5.8,5.1 C5.5,5.1 5.5,5.5 5.8,5.5 L5.8,5.5 L5.8,5.5 Z"></path>
                    <path d="M9.7,1.2 L9.7,5.3 C9.7,5.4 9.8,5.5 9.9,5.5 L11.7,5.5 C12,5.5 12,5 11.7,5.1 C11.1,5.1 10.5,5.2 9.9,5.1 C10,5.2 10,5.2 10.1,5.3 L10.1,1.2 C10.2,0.9 9.7,0.9 9.7,1.2 L9.7,1.2 L9.7,1.2 Z"></path>
                    <path d="M13.3,1.2 L13.3,5.3 C13.3,5.4 13.4,5.5 13.5,5.5 L15.3,5.5 C15.6,5.5 15.6,5 15.3,5.1 C14.7,5.1 14.1,5.2 13.5,5.1 C13.6,5.2 13.6,5.2 13.7,5.3 L13.7,1.2 C13.7,0.9 13.3,0.9 13.3,1.2 L13.3,1.2 L13.3,1.2 Z"></path>
                    <path d="M16.9,1.4 C16,2.2 15.6,3.5 16.2,4.6 C16.7,5.5 17.9,6.2 18.9,5.5 C19.8,4.8 20,3.3 19.6,2.3 C19.1,1.3 17.9,0.6 16.9,1.4 C16.7,1.6 17,2 17.2,1.8 C18.9,0.5 19.9,3.9 18.7,5 C17.8,5.8 16.7,4.7 16.5,3.9 C16.3,3.1 16.6,2.3 17.3,1.8 C17.5,1.5 17.1,1.2 16.9,1.4 L16.9,1.4 L16.9,1.4 Z"></path>
                </g>
                <circle id="Oval" stroke="#7C7B75" stroke-width="0.4393" fill="#E6E7E8" cx="59.8" cy="24.3" r="11.2"></circle>
                <path d="M36.9,75.7 L20.5,75.7 L20.5,19.4 L28.4,19.3 L36.9,19.4 L36.9,75.7 Z" id="Shape" stroke="#808184" stroke-width="0.2984" fill="#EDB649"></path>
                <circle id="Oval" stroke="#6D6D6D" stroke-width="0.3011" fill="#F58E6F" cx="28.8" cy="76.4" r="8.3"></circle>
                <path d="M36.9,19.4 L20.6,19.3 L28.7,0.8 L36.9,19.4 Z" id="Shape" stroke="#808184" stroke-width="0.4113" fill="#75A9D0"></path>
                <path d="M31.7,8.3 L25.5,8.3 L28.6,1.2 L31.7,8.3 Z" id="Shape" fill="#808184"></path>
                <path d="M28.8,68.1 L28.8,19.2" id="Shape" stroke="#6D6D6D" stroke-width="0.3011"></path>
                <circle id="Oval" fill="#58595B" transform="translate(28.587830, 76.723910) rotate(-45.000000) translate(-28.587830, -76.723910) " cx="28.58783" cy="76.72391" r="2.69997411"></circle>
                <g transform="translate(85.000000, 19.000000)" id="Shape" stroke="#7C7B75" stroke-width="0.5362">
                    <path d="M0.1,0 L2,1.9"></path>
                    <path d="M2,0 L0,1.9"></path>
                </g>
                <g transform="translate(43.000000, 14.000000)" id="Shape" stroke="#7C7B75" stroke-width="0.5362">
                    <path d="M0.1,0.5 L2.1,2.5"></path>
                    <path d="M2,0.5 L0,2.5"></path>
                </g>
                <g transform="translate(12.000000, 15.000000)" id="Shape" stroke="#7C7B75" stroke-width="0.5362">
                    <path d="M0.5,0.8 L2.4,2.8"></path>
                    <path d="M2.4,0.8 L0.4,2.8"></path>
                </g>
                <g transform="translate(0.000000, 37.000000)" id="Shape" stroke="#7C7B75" stroke-width="0.5362">
                    <path d="M0.9,0.8 L2.9,2.7"></path>
                    <path d="M2.8,0.8 L0.9,2.7"></path>
                </g>
                <g transform="translate(11.000000, 55.000000)" id="Shape" stroke="#7C7B75" stroke-width="0.5362">
                    <path d="M0.9,0.7 L2.9,2.6"></path>
                    <path d="M2.8,0.6 L0.9,2.6"></path>
                </g>
                <g transform="translate(97.000000, 12.000000)" id="Shape" stroke="#7C7B75" stroke-width="0.5362">
                    <path d="M0.9,0.7 L2.8,2.7"></path>
                    <path d="M2.8,0.7 L0.8,2.6"></path>
                </g>
                <g transform="translate(80.000000, 7.000000)" id="Shape" stroke="#7C7B75" stroke-width="0.5362">
                    <path d="M0.4,0.6 L2.4,2.6"></path>
                    <path d="M2.3,0.6 L0.4,2.5"></path>
                </g>
                <path d="M98.6,58.9 C98.6,74.1 93.9,83.5 88.6,83.5 C83.3,83.5 78.6,74.1 78.6,58.9 C78.6,37.4 88.6,28.4 88.6,28.4 C88.6,28.4 98.6,38.2 98.6,58.9 L98.6,58.9 Z" id="Shape" stroke="#7C7B75" stroke-width="0.3404" fill="#F27456"></path>
                <g transform="translate(83.000000, 69.000000)" stroke="#7C7B75">
                    <circle id="Oval" stroke-width="0.3738" fill="#EF9528" cx="8.1" cy="8" r="7.8"></circle>
                    <path d="M13.1,14.1 C11.3,12.7 10.2,10.5 10.2,8.1 C10.2,5.7 11.3,3.6 12.9,2.2" id="Shape" stroke-width="0.4984" fill="#EF9528"></path>
                    <path d="M3.3,2.1 C5.1,3.5 6.2,5.7 6.2,8.1 C6.2,10.5 5.1,12.6 3.5,14" id="Shape" stroke-width="0.4984" fill="#EF9528"></path>
                    <path d="M8.2,0.3 L8.2,15.8" id="Shape" stroke-width="0.4984"></path>
                    <path d="M0.3,8.3 L15.8,8.3" id="Shape" stroke-width="0.4984"></path>
                </g>
                <path d="M87.6,82.5 C85.4,84.7 83.8,84.6 82.7,83.6 C81.6,82.5 81.6,80.9 83.8,78.7 C86,76.5 90.7,75.7 90.7,75.7 C90.7,75.7 89.8,80.3 87.6,82.5 L87.6,82.5 Z" id="Shape" stroke="#7C7B75" stroke-width="0.4393" fill="#1F9F64"></path>
                <path d="M84.5,80.1 C84.5,83.2 83.3,84.3 81.8,84.3 C80.3,84.3 79.1,83.2 79.1,80.1 C79.1,77 81.8,73.1 81.8,73.1 C81.8,73.1 84.5,77 84.5,80.1 L84.5,80.1 Z" id="Shape" stroke="#808184" stroke-width="0.4113" fill="#3685B5"></path>
                <path d="M37.9,84.4 L30.6,84.4 C30.6,84.4 33.9,80.5 30.5,75.8 C26.8,70.6 30.4,63.9 30.4,63.9 C30.4,63.9 29,70 34.8,75.9 C39.3,80.6 37.9,84.4 37.9,84.4 L37.9,84.4 Z" id="Shape" stroke="#7C7B75" stroke-width="0.4393" fill="#FCE25A"></path>
                <path d="M40.4,84.4 L34.7,84.4 C34.7,84.4 37.2,81.4 34.6,77.7 C31.7,73.6 34.5,68.5 34.5,68.5 C34.5,68.5 33.4,73.2 37.9,77.9 C41.5,81.5 40.4,84.4 40.4,84.4 L40.4,84.4 Z" id="Shape" stroke="#7C7B75" stroke-width="0.4393" fill="#79C267"></path>
                <path d="M83.7,84.3 L75.5,84.3 C75.5,84.3 72,83.1 74.2,79.3 C76.7,75 75.5,70.2 75.5,70.2 C75.5,70.2 78.5,72.7 78.5,78.9 C78.6,82.5 83.7,84.3 83.7,84.3 L83.7,84.3 Z" id="Shape" stroke="#7C7B75" stroke-width="0.4393" fill="#79C267"></path>
                <g transform="translate(57.000000, 6.000000)" id="Shape" stroke="#6D6E70" stroke-width="2.0806">
                    <path d="M4.5,0.4 C7.3,0.4 9.6,2.7 9.6,5.5 C9.6,8.3 7.3,10.6 4.5,10.6 L2.5,10.6 L2.5,17.1"></path>
                    <path d="M2.5,21.3 L2.5,21.5"></path>
                    <path d="M4.2,0.3 L0.5,0.3"></path>
                </g>
                <path d="M88.9,57.9 C88.9,57.9 84.4,47.3 84.3,42.9 C84.2,39.7 88.9,39.4 88.9,39.4 L88.9,57.9 L88.9,57.9 Z" id="Shape" stroke="#6D6E70" stroke-width="0.2053" fill="#E6E7E8"></path>
            </g>
        </g>
    </g>
</svg>