<?xml version="1.0" encoding="UTF-8" standalone="no"?>
<svg width="121px" height="112px" viewBox="0 0 121 112" version="1.1" xmlns="http://www.w3.org/2000/svg" xmlns:xlink="http://www.w3.org/1999/xlink" xmlns:sketch="http://www.bohemiancoding.com/sketch/ns">
    <!-- Generator: Sketch 3.5.1 (25234) - http://www.bohemiancoding.com/sketch -->
    <title>_x33_</title>
    <desc>Created with Sketch.</desc>
    <defs></defs>
    <g id="Welcome" stroke="none" stroke-width="1" fill="none" fill-rule="evenodd" sketch:type="MSPage">
        <g id="_x33_" sketch:type="MSLayerGroup">
            <g id="Group" sketch:type="MSShapeGroup">
                <rect id="Rectangle-path" stroke="#525352" stroke-width="0.1962" fill="#F4F6F4" x="41.6" y="0.1" width="57.4" height="42.7"></rect>
                <path d="M97.4,49.1 L82.1,49.1 C78.5,49.1 75.6,46.2 75.6,42.6 L75.6,42.6 C75.6,39 78.5,36.1 82.1,36.1 L97.4,36.1 C101,36.1 103.9,39 103.9,42.6 L103.9,42.6 C103.9,46.2 100.9,49.1 97.4,49.1 L97.4,49.1 Z" id="Shape" stroke="#7C7B75" stroke-width="0.3925" fill="#F0B128"></path>
                <path d="M120,61.8 C120,58.2 117.1,55.3 113.5,55.3 L98.2,55.3 C94.6,55.3 91.7,58.2 91.7,61.8 C91.7,64.3 93.1,66.4 95.1,67.5 L92.7,67.5 C90.9,67.5 89.5,68.9 89.5,70.7 C89.5,72.5 90.9,73.9 92.7,73.9 L114.6,73.9 C116.4,73.9 117.8,72.5 117.8,70.7 C117.8,69.4 117,68.3 115.9,67.8 C118.3,66.8 120,64.5 120,61.8 L120,61.8 Z" id="Shape" stroke="#7C7B75" stroke-width="0.3925" fill="#F0B128"></path>
                <path d="M60.1,47.3 L48.3,47.3 C52.5,47.3 56,43.8 56,39.6 L56,39.6 C56,35.4 52.5,31.9 48.3,31.9 L8.3,31.9 C4.1,31.9 0.6,35.4 0.6,39.6 L0.6,39.6 C0.6,43.8 4.1,47.3 8.3,47.3 L20.1,47.3 C15.9,47.3 12.4,50.8 12.4,55 L12.4,55 C12.4,59.2 15.9,62.7 20.1,62.7 L11.4,62.7 C9.4,62.7 7.8,64.3 7.8,66.3 L7.8,66.3 C7.8,68.3 9.4,69.9 11.4,69.9 L59.5,69.9 C61.5,69.9 63.1,68.3 63.1,66.3 L63.1,66.3 C63.1,64.3 61.5,62.7 59.5,62.7 L60.2,62.7 C64.4,62.7 67.9,59.2 67.9,55 L67.9,55 C67.7,50.7 64.3,47.3 60.1,47.3 L60.1,47.3 Z" id="Shape" stroke="#7C7B75" stroke-width="0.3925" fill="#F0B128"></path>
                <path d="M93.4,85.2 L46.9,85.2 C43.8,85.2 41.3,82.7 41.3,79.6 L41.3,57.8 C41.3,54.7 43.8,52.2 46.9,52.2 L93.4,52.2 C96.5,52.2 99,54.7 99,57.8 L99,79.6 C98.9,82.7 96.4,85.2 93.4,85.2 L93.4,85.2 Z" id="Shape" fill="#D83D27"></path>
                <g transform="translate(34.000000, 76.000000)" id="Shape" stroke="#7C7B75" stroke-width="0.3925">
                    <path d="M0.3,0.3 L1.8,1.8"></path>
                    <path d="M1.8,0.3 L0.2,1.8"></path>
                </g>
                <g transform="translate(34.000000, 83.000000)" id="Shape" stroke="#7C7B75" stroke-width="0.3925">
                    <path d="M0.3,0.3 L1.8,1.9"></path>
                    <path d="M1.8,0.3 L0.2,1.9"></path>
                </g>
                <g transform="translate(34.000000, 91.000000)" id="Shape" stroke="#7C7B75" stroke-width="0.3925">
                    <path d="M0.3,0 L1.8,1.5"></path>
                    <path d="M1.8,0 L0.2,1.5"></path>
                </g>
                <g transform="translate(91.000000, 19.000000)" id="Shape" stroke="#7C7B75" stroke-width="0.3925">
                    <path d="M0.1,0.5 L1.6,2"></path>
                    <path d="M1.6,0.5 L0.1,2"></path>
                </g>
                <g transform="translate(99.000000, 11.000000)" id="Shape" stroke="#7C7B75" stroke-width="0.3925">
                    <path d="M0.3,0 L1.8,1.5"></path>
                    <path d="M1.8,0 L0.2,1.5"></path>
                </g>
                <g transform="translate(106.000000, 2.000000)" id="Shape" stroke="#7C7B75" stroke-width="0.3925">
                    <path d="M0,0.8 L1.6,2.3"></path>
                    <path d="M1.5,0.7 L0,2.3"></path>
                </g>
                <path d="M93.5,74.7 L47,74.7 C43.9,74.7 41.4,72.2 41.4,69.1 L41.4,30.8 C41.4,27.7 43.9,25.2 47,25.2 L93.5,25.2 C96.6,25.2 99.1,27.7 99.1,30.8 L99.1,69.1 C99,72.2 96.5,74.7 93.5,74.7 L93.5,74.7 Z" id="Shape" fill="#F27456"></path>
                <g transform="translate(49.000000, 38.000000)" stroke="#FFFFFF" id="Oval" stroke-width="0.5485">
                    <circle cx="15.6" cy="16.3" r="9.5"></circle>
                    <circle cx="15.5" cy="16" r="3.5"></circle>
                    <circle cx="15.7" cy="16.3" r="15.5"></circle>
                </g>
                <path d="M17.4,81.6 L17.4,81.6 C15.9,81.6 14.6,80.3 14.6,78.8 L14.6,78.8 C14.6,77.3 15.9,76 17.4,76 L17.4,76 C18.9,76 20.2,77.3 20.2,78.8 L20.2,78.8 C20.2,80.4 18.9,81.6 17.4,81.6 L17.4,81.6 Z" id="Shape" stroke="#7C7B75" stroke-width="0.3925" fill="#F0B128"></path>
                <path d="M105.9,53.5 L105.9,53.5 C104.4,53.5 103.1,52.2 103.1,50.7 L103.1,50.7 C103.1,49.2 104.4,47.9 105.9,47.9 L105.9,47.9 C107.4,47.9 108.7,49.2 108.7,50.7 L108.7,50.7 C108.6,52.2 107.4,53.5 105.9,53.5 L105.9,53.5 Z" id="Shape" stroke="#7C7B75" stroke-width="0.3925" fill="#F0B128"></path>
                <g transform="translate(88.000000, 28.000000)" id="Shape" stroke="#FFFFFF" stroke-width="0.7849">
                    <path d="M1,0.1 L6.9,6"></path>
                    <path d="M6.8,0.1 L0.9,5.9"></path>
                </g>
                <path d="M98.9,55.3 C97.1,55.3 95.7,53.9 95.7,52.1 L95.7,52.1 C95.7,50.3 97.1,48.9 98.9,48.9" id="Shape" stroke="#7C7B75" stroke-width="0.3925" fill="#F0B128"></path>
                <path d="M35.5,48.9 C37.3,48.9 38.7,50.3 38.7,52.1 L38.7,52.1 C38.7,53.9 37.3,55.3 35.5,55.3" id="Shape" stroke="#7C7B75" stroke-width="0.3925" fill="#F0B128"></path>
                <path d="M41.1,60.3 C42.9,60.3 44.3,61.7 44.3,63.5 L44.3,63.5 C44.3,65.3 42.9,66.7 41.1,66.7" id="Shape" stroke="#7C7B75" stroke-width="0.3925" fill="#F0B128"></path>
                <g transform="translate(9.000000, 0.000000)" id="Shape" stroke="#6D6E71" stroke-width="0.7849">
                    <path d="M55.6,54.2 L9.9,9.7"></path>
                    <path d="M32.8,31.9 L9.9,9.7 L8.9,0.4 L32.4,24 L32.8,31.9 Z"></path>
                    <path d="M23.8,31.8 L0.2,8.6 L9.9,9.7 L32.7,32.1 L23.8,31.8 Z"></path>
                    <path d="M15.8,7.1 L17,16.4"></path>
                    <path d="M22.9,14.3 L24.2,23.5"></path>
                    <path d="M17,16.4 L7.3,15.6"></path>
                    <path d="M24,23.5 L14.3,22.6"></path>
                </g>
                <g transform="translate(71.000000, 4.000000)" id="Shape" stroke="#2767A0" stroke-width="0.9812">
                    <path d="M18.1,15.2 L3.4,15.2 L0.5,5 L21,5 L18.1,15.2 Z"></path>
                    <path d="M10.8,5.3 L10.8,15.2"></path>
                    <path d="M15.6,5.3 L15.6,15.2"></path>
                    <path d="M1.7,8.6 L19.8,8.7"></path>
                    <path d="M2.7,11.8 L19.1,11.9"></path>
                    <path d="M6.3,5.3 L6.3,15.2"></path>
                    <path d="M6.2,5.3 L6.2,5.3 C6.2,2.7 8.3,0.6 10.9,0.6 L10.9,0.6 C13.5,0.6 15.6,2.7 15.6,5.3 L15.6,5.3"></path>
                </g>
                <g transform="translate(52.000000, 61.000000)" id="Shape">
                    <path d="M38.2,40.2 L38.5,19.8 L38.5,19.8 C38.5,18.1 37.1,16.8 35.4,16.7 C34,16.7 32.8,17.5 32.3,18.7 C31.9,17.4 30.7,16.5 29.3,16.4 C27.9,16.4 26.6,17.3 26.2,18.5 C25.8,17.2 24.6,16.3 23.2,16.3 C21.7,16.3 20.5,17.2 20.1,18.6 L20.4,4.1 C20.4,2.4 19,1 17.3,0.9 C15.5,0.9 14.1,2.2 14,4 L13.6,24.3 C12.1,21.1 8.7,17.3 6.4,16.5 C4.5,15.9 2,16.6 1.4,18.7 C0.9,20.7 2.8,22.1 4.1,23.3 C7.9,27 8.2,30.4 8.1,35.4 C8,39.7 12.8,50 23.4,50.2 C33.3,50.4 38.1,43.5 38.2,40.2 L38.2,40.2 Z" fill="#FFFFFF"></path>
                    <path d="M38.5,40.2 C38.6,34.3 38.7,28.3 38.7,22.4 L38.7,19.8 C38.7,19.7 38.6,19.6 38.5,19.6 L38.5,19.6 C38.6,19.7 38.7,19.8 38.7,19.8 C38.5,16.2 33.5,15.3 32,18.6 C32.2,18.6 32.3,18.6 32.5,18.7 C31.4,15.6 27.1,15.5 25.9,18.6 L26.4,18.6 C25.3,15.4 20.8,15.4 19.8,18.6 C20,18.6 20.1,18.6 20.3,18.7 C20.4,15.9 20.4,13 20.5,10.2 C20.5,8.6 20.6,6.9 20.6,5.3 C20.6,4 20.6,2.8 19.6,1.8 C18,0.2 15,0.6 14,2.7 C13.6,3.5 13.7,4.5 13.6,5.4 C13.5,8.9 13.5,12.3 13.4,15.8 C13.3,18.7 13.3,21.5 13.2,24.4 C13.4,24.4 13.5,24.3 13.7,24.3 C12.3,21.5 10.1,18.6 7.5,17 C5.6,15.8 2.5,15.9 1.3,18.2 C-0.2,21.1 3.5,23.2 5.1,25 C7.3,27.7 7.8,30.9 7.8,34.2 C7.8,36.3 8,38 8.8,40 C9.7,42.2 11,44.2 12.6,45.9 C16.8,50.2 22.9,51.5 28.6,50 C31.4,49.2 34.1,47.7 36,45.5 C37.3,43.9 38.4,42.1 38.5,40.2 C38.5,39.9 38,39.9 38,40.2 C37.8,44.2 33.6,47.5 30.2,48.9 C24.9,51 18.6,50.4 14.2,46.7 C11.2,44.2 8.6,40.2 8.3,36.3 C8.1,33.9 8.4,31.5 7.8,29.1 C7.1,26.4 5.4,24.4 3.4,22.5 C2.1,21.3 0.7,19.5 2.2,17.8 C3.3,16.6 5.2,16.4 6.6,17 C8,17.6 9.2,18.8 10.3,20 C11.5,21.4 12.6,22.9 13.4,24.5 C13.5,24.7 13.9,24.6 13.9,24.4 C14,18.8 14.1,13.2 14.2,7.6 C14.2,6.6 14.2,5.5 14.3,4.5 C14.4,2.4 16.1,0.7 18.3,1.5 C20,2.1 20.2,3.8 20.2,5.3 C20.2,6.8 20.1,8.3 20.1,9.8 C20,12.8 20,15.7 19.9,18.7 C19.9,19 20.3,19 20.4,18.8 C21.3,16.1 25.1,16.1 26.1,18.8 C26.2,19 26.5,19 26.6,18.8 C27.6,16.2 31.3,16.3 32.2,18.9 C32.3,19.1 32.6,19.2 32.7,19 C33.9,16.1 38.3,16.7 38.4,19.9 C38.4,20 38.5,20.1 38.6,20.1 L38.6,20.1 C38.5,20 38.4,19.9 38.4,19.9 C38.3,25.8 38.2,31.8 38.2,37.7 L38.2,40.3 C38,40.5 38.5,40.5 38.5,40.2 L38.5,40.2 Z" fill="#7C7B75"></path>
                </g>
            </g>
        </g>
    </g>
</svg>