<?xml version="1.0" encoding="UTF-8" standalone="no"?>
<svg width="128px" height="103px" viewBox="0 0 128 103" version="1.1" xmlns="http://www.w3.org/2000/svg" xmlns:xlink="http://www.w3.org/1999/xlink" xmlns:sketch="http://www.bohemiancoding.com/sketch/ns">
    <!-- Generator: Sketch 3.5.1 (25234) - http://www.bohemiancoding.com/sketch -->
    <title>_x34_</title>
    <desc>Created with Sketch.</desc>
    <defs></defs>
    <g id="Welcome" stroke="none" stroke-width="1" fill="none" fill-rule="evenodd" sketch:type="MSPage">
        <g id="_x34_" sketch:type="MSLayerGroup" transform="translate(0.000000, 1.000000)">
            <g id="Group" sketch:type="MSShapeGroup">
                <path d="M108.9,50.5 L108.9,79.8 C108.9,85.7 104,90.6 98.1,90.6 L98.1,90.6 C92.2,90.6 87.3,85.7 87.3,79.8 L87.3,50.2" id="Shape" stroke="#929497" stroke-width="2.1601" fill="#DBDADA"></path>
                <path d="M115.3,46.5 L95.9,46.5 C89.3,46.5 83.9,51.9 83.9,58.5 L83.9,58.5 C83.9,62.6 86,66.2 89.1,68.4 L72.8,68.4 C71,68.4 69.5,69.9 69.5,71.7 C69.5,73.5 71,75 72.8,75 L109.6,75 C111.4,75 112.9,73.5 112.9,71.7 C112.9,71.3 112.8,70.9 112.7,70.5 L115.3,70.5 C121.9,70.5 127.3,65.1 127.3,58.5 L127.3,58.5 C127.3,51.9 121.9,46.5 115.3,46.5 L115.3,46.5 Z" id="Shape" stroke="#7C7B75" stroke-width="0.3927" fill="#F0B128"></path>
                <path d="M65.1,40.6 L65.1,11.3 C65.1,5.4 70,0.5 75.9,0.5 L75.9,0.5 C81.8,0.5 86.7,5.4 86.7,11.3 L86.7,40.9" id="Shape" stroke="#929497" stroke-width="2.1601" fill="#DBDADA"></path>
                <path d="M65.2,59.1 L65.2,88.4 C65.2,94.3 60.3,99.2 54.4,99.2 L54.4,99.2 C48.5,99.2 43.6,94.3 43.6,88.4 L43.6,58.8" id="Shape" stroke="#929497" stroke-width="2.1601" fill="#DBDADA"></path>
                <rect id="Rectangle-path" fill="#F0CC78" x="38.1" y="55.7" width="-0.1" height="0.3"></rect>
                <g transform="translate(0.000000, 29.000000)" id="Shape" stroke="#7C7B75" stroke-width="0.4509" fill="#F0B128">
                    <path d="M16.5,0.8 C15.8,0.8 13.9,1.6 13.9,3.9 C13.9,4.8 14.2,5.6 14.6,6.1 C14.7,6.3 14.7,6.5 14.5,6.5 L7,6.5 L7,6.5 C3.9,6.5 0.5,9.8 0.5,13.8 C0.5,17.8 4,21.1 7,21.1 L7,21.2 L17.6,21.2 C15.9,21.7 13.8,23.5 13.8,25.9 C13.8,28.7 16.3,31.1 18.4,31.2 L33.5,31.2 C35.6,31.2 37.3,28.9 37.3,26.1 C37.3,23.7 36,21.7 34.3,21.2 L41.7,21.2 L41.7,6.5 L42.1,6.5 L42.1,1 L16.5,0.8 L16.5,0.8 Z"></path>
                    <path d="M37.8,1 L48.2,1 C50.8,1 53.7,4 53.7,7.1 L53.7,7.1 C53.7,10.3 50.8,12.8 48.2,12.8 L37.8,12.8"></path>
                </g>
                <g transform="translate(64.000000, 20.000000)">
                    <circle id="Oval" fill="#FFFFFF" cx="21.5" cy="21.1" r="12.4"></circle>
                    <path d="M21.5,41.8 C10.1,41.8 0.8,32.5 0.8,21.1 C0.8,9.7 10.1,0.4 21.5,0.4 C32.9,0.4 42.2,9.7 42.2,21.1 C42.2,32.5 32.9,41.8 21.5,41.8 L21.5,41.8 Z M21.5,17 C19.3,17 17.4,18.8 17.4,21.1 C17.4,23.4 19.2,25.2 21.5,25.2 C23.7,25.2 25.6,23.4 25.6,21.1 C25.6,18.8 23.8,17 21.5,17 L21.5,17 Z" id="Shape" fill="#7C7B75"></path>
                </g>
                <rect id="Rectangle-path" stroke="#7C7B75" stroke-width="0.1964" fill="#3F4E6D" x="31.3" y="44.3" width="59.7" height="34.7"></rect>
                <path d="M101.7,28.1 C104.9,31.4 106.9,38.5 106.2,44 L86.2,41.3" id="Shape" fill="#4EBFAC"></path>
                <path d="M93.6,22 C94.2,22.3 94.9,22.6 95.5,22.9" id="Shape" fill="#F27456"></path>
                <path d="M85.5,41 L64.8,41 C64.8,29.6 74.1,20.3 85.5,20.3" id="Shape" fill="#F27456"></path>
                <circle id="Oval" fill="#FFFFFF" cx="85.6" cy="41.1" r="4.1"></circle>
                <path d="M91.1,60.5 C89.3,61 87.6,61.3 85.6,61.3 C74.8,61.3 66,53.3 64.8,43 L90.6,43.6 L91.1,60.5 L91.1,60.5 Z" id="Shape" fill="#4E6181"></path>
                <rect id="Rectangle-path" fill="#F27456" x="31.3" y="44.3" width="33.9" height="35"></rect>
                <g transform="translate(69.000000, 57.000000)" id="Shape">
                    <path d="M21.6,21.4 L21.5,10.7 L21.5,10.7 C21.5,9.8 20.7,9 19.7,9 C18.9,9 18.2,9.5 18,10.2 C17.8,9.5 17.1,9 16.3,9 C15.5,9 14.8,9.5 14.6,10.2 C14.4,9.5 13.7,9 12.9,9 C12.1,9 11.3,9.6 11.2,10.3 L11.2,2 C11.2,1 10.4,0.2 9.4,0.2 C8.4,0.2 7.6,1 7.6,2 L7.6,13.5 C6.7,11.7 4.7,9.6 3.4,9.2 C2.3,8.9 0.9,9.3 0.6,10.5 C0.3,11.6 1.4,12.4 2.2,13.1 C4.4,15.2 4.6,17.1 4.6,19.9 C4.6,20.3 4.7,20.9 4.9,21.4" fill="#FFFFFF"></path>
                    <path d="M21.9,21.4 C21.9,17.8 21.9,14.3 21.8,10.7 C21.8,10.6 21.7,10.5 21.6,10.5 L21.6,10.5 L21.8,10.7 C21.6,8.6 18.7,8 17.8,10.1 C18,10.1 18.1,10.1 18.3,10.2 C17.6,8.4 15.1,8.4 14.4,10.2 L14.9,10.2 C14.2,8.3 11.6,8.4 11,10.3 C11.2,10.3 11.3,10.3 11.5,10.4 L11.5,5.4 C11.5,4.1 12,1.7 10.8,0.7 C9.9,-0.1 8.4,0.1 7.8,1.1 C7.4,1.6 7.4,2.1 7.4,2.7 L7.4,8.5 L7.4,13.6 C7.6,13.6 7.7,13.5 7.9,13.5 C7.1,11.9 5.6,10 3.9,9.2 C2.7,8.7 0.8,9.1 0.5,10.5 C0.3,11.3 0.7,12 1.2,12.5 C2,13.3 2.9,14 3.5,15 C4.7,17.1 4.1,19.3 4.7,21.5 C4.8,21.8 5.2,21.7 5.2,21.4 C4.7,19.8 5.1,18 4.6,16.4 C4.2,14.9 3.3,13.8 2.2,12.8 C1.4,12.1 0.4,11.2 1.2,10.1 C1.8,9.3 3,9.3 3.8,9.7 C5.4,10.5 6.6,12.2 7.4,13.7 C7.5,13.9 7.9,13.8 7.9,13.6 L7.9,4.4 C7.9,3.1 7.5,-2.67563749e-14 9.9,0.7 C11.5,1.2 11,4.2 11,5.5 L11,10.4 C11,10.7 11.4,10.7 11.5,10.5 C12,9.1 13.9,9 14.5,10.4 C14.6,10.6 14.9,10.6 15,10.4 C15.5,9 17.4,9 18,10.4 C18.1,10.6 18.4,10.7 18.5,10.5 C19.1,9 21.4,9.2 21.6,10.9 C21.6,11 21.7,11.1 21.8,11.1 L21.8,11.1 C21.7,11 21.6,10.9 21.6,10.9 C21.6,14.5 21.6,18 21.7,21.6 C21.4,21.7 21.9,21.7 21.9,21.4 L21.9,21.4 L21.9,21.4 Z" fill="#7C7B75"></path>
                </g>
                <rect id="Rectangle-path" stroke="#3C4774" stroke-width="8.0512" x="31.3" y="44.3" width="59.7" height="34.7"></rect>
                <g transform="translate(37.000000, 53.000000)">
                    <g id="Shape">
                        <path d="M22.6,6.4 C20.4,9.7 16,11.9 11.6,11.7 C7.2,11.6 2.9,9.2 1.1,5.7 L1.1,5.6 C2.3,3.8 4.3,2.7 6.4,1.8 C7.7,1.2 9.1,0.8 10.5,0.6 C12.8,0.3 15.3,0.9 17.3,1.9 C19.3,2.9 21.4,4.5 22.7,6.2 L22.6,6.4 L22.6,6.4 Z" fill="#FFFFFF"></path>
                        <path d="M22.4,6.3 C18.8,11.6 11.2,12.9 5.7,10 C4.4,9.3 3.2,8.4 2.3,7.3 C2,7 1.8,6.7 1.6,6.3 C1.4,5.9 1.3,5.9 1.4,5.6 C1.7,4.9 2.7,4.2 3.3,3.8 C6,2 9.4,0.6 12.7,1 C14.7,1.2 16.6,1.9 18.3,3 C19.1,3.5 19.9,4.1 20.7,4.8 C21.1,4.9 22.5,6.1 22.4,6.3 C22.3,6.6 22.7,6.8 22.8,6.6 C22.8,6.5 22.8,6.5 22.9,6.4 C23,6.3 22.9,6.2 22.9,6.1 C20.6,3.2 17,0.9 13.3,0.4 C9.7,-0.1 5.9,1.3 3,3.4 C2.4,3.9 0.8,4.9 0.9,5.8 C1,6.4 1.8,7.2 2.2,7.7 C2.7,8.3 3.3,8.8 3.9,9.3 C6.6,11.4 10.2,12.3 13.6,11.9 C17.2,11.5 20.8,9.6 22.8,6.5 C23,6.3 22.5,6 22.4,6.3 L22.4,6.3 Z" fill="#6D6E71"></path>
                    </g>
                    <circle id="Oval" fill="#F58D6F" cx="12.1" cy="5.3" r="4.2"></circle>
                    <circle id="Oval" fill="#353535" cx="12.9" cy="5.3" r="2.3"></circle>
                    <circle id="Oval" fill="#FFFFFF" cx="15.3" cy="4.4" r="1.1"></circle>
                </g>
                <circle id="Oval" stroke="#F27456" stroke-width="0.9819" fill="#F27456" cx="70.9" cy="1.9" r="1.4"></circle>
                <circle id="Oval" stroke="#F27456" stroke-width="0.9819" fill="#F27456" cx="84.4" cy="5" r="1.4"></circle>
                <circle id="Oval" stroke="#F27456" stroke-width="0.9819" fill="#F27456" cx="65" cy="28.3" r="1.4"></circle>
                <circle id="Oval" stroke="#F27456" stroke-width="0.981937238" fill="#F27456" transform="translate(55.799920, 99.307710) rotate(-29.972287) translate(-55.799920, -99.307710) " cx="55.79992" cy="99.30771" r="1.40005309"></circle>
                <circle id="Oval" stroke="#F27456" stroke-width="0.981937238" fill="#F27456" transform="translate(108.507290, 81.431720) rotate(-29.972287) translate(-108.507290, -81.431720) " cx="108.50729" cy="81.43172" r="1.40005309"></circle>
                <circle id="Oval" stroke="#F27456" stroke-width="0.981937238" fill="#F27456" transform="translate(98.828360, 90.683130) rotate(-29.972287) translate(-98.828360, -90.683130) " cx="98.82836" cy="90.68313" r="1.40005309"></circle>
                <g transform="translate(33.000000, 16.000000)" id="Shape" stroke="#7C7B75" stroke-width="0.3927">
                    <path d="M0.1,0.3 L1.6,1.9"></path>
                    <path d="M1.6,0.3 L0,1.9"></path>
                </g>
                <g transform="translate(111.000000, 22.000000)" id="Shape" stroke="#7C7B75" stroke-width="0.3927">
                    <path d="M0.3,0.3 L1.8,1.8"></path>
                    <path d="M1.8,0.3 L0.2,1.8"></path>
                </g>
                <g transform="translate(7.000000, 61.000000)" id="Shape" stroke="#7C7B75" stroke-width="0.3927">
                    <path d="M0.3,0.7 L1.9,2.3"></path>
                    <path d="M1.8,0.7 L0.3,2.2"></path>
                </g>
                <g transform="translate(19.000000, 69.000000)" id="Shape" stroke="#7C7B75" stroke-width="0.3927">
                    <path d="M0.6,0.8 L2.1,2.3"></path>
                    <path d="M2.1,0.8 L0.5,2.3"></path>
                </g>
                <g transform="translate(14.000000, 76.000000)" id="Shape" stroke="#7C7B75" stroke-width="0.3927">
                    <path d="M0.8,0 L2.4,1.5"></path>
                    <path d="M2.3,0 L0.8,1.5"></path>
                </g>
                <g transform="translate(49.000000, 16.000000)" id="Shape" stroke="#7C7B75" stroke-width="0.3927">
                    <path d="M0.5,0.4 L2.1,1.9"></path>
                    <path d="M2,0.4 L0.5,1.9"></path>
                </g>
            </g>
        </g>
    </g>
</svg>